<?xml version="1.0" encoding="UTF-8" standalone="no"?>
<!-- Created with Inkscape (http://www.inkscape.org/) -->

<svg
   xmlns:dc="http://purl.org/dc/elements/1.1/"
   xmlns:cc="http://creativecommons.org/ns#"
   xmlns:rdf="http://www.w3.org/1999/02/22-rdf-syntax-ns#"
   xmlns:svg="http://www.w3.org/2000/svg"
   xmlns="http://www.w3.org/2000/svg"
   xmlns:xlink="http://www.w3.org/1999/xlink"
   xmlns:sodipodi="http://sodipodi.sourceforge.net/DTD/sodipodi-0.dtd"
   xmlns:inkscape="http://www.inkscape.org/namespaces/inkscape"
   width="683.28796"
   height="283.6889"
   id="svg2"
   version="1.1"
   inkscape:version="0.48.4 r9939"
   sodipodi:docname="rml-pdf-chart.svg"
   inkscape:export-filename="/tmp/rml-pdf-chart-06.png"
   inkscape:export-xdpi="90.098694"
   inkscape:export-ydpi="90.098694">
  <defs
     id="defs4">
    <marker
       inkscape:stockid="Arrow1Lend"
       orient="auto"
       refY="0"
       refX="0"
       id="Arrow1Lend"
       style="overflow:visible">
      <path
         id="path3881"
         d="M 0,0 5,-5 -12.5,0 5,5 0,0 z"
         style="fill-rule:evenodd;stroke:#000000;stroke-width:1pt"
         transform="matrix(-0.8,0,0,-0.8,-10,0)"
         inkscape:connector-curvature="0" />
    </marker>
    <linearGradient
       y2="472.52829"
       y1="472.52829"
       x2="-263.4754"
       x1="-265.1528"
       id="XMLID_21_"
       gradientUnits="userSpaceOnUse"
       gradientTransform="matrix(0,-132.4658,-132.4658,0,62634.7,-34991.23)">
      <stop
         style="stop-color:#7FB5F7"
         offset="0"
         id="stop16" />
      <stop
         style="stop-color:#063DA7"
         offset="1"
         id="stop18" />
    </linearGradient>
    <linearGradient
       y2="472.5498"
       y1="472.5498"
       x2="-263.46979"
       x1="-265.15579"
       id="XMLID_22_"
       gradientUnits="userSpaceOnUse"
       gradientTransform="matrix(0,-132.4658,-132.4658,0,62634.7,-34991.23)">
      <stop
         style="stop-color:#7ED8FC"
         offset="0"
         id="stop23" />
      <stop
         style="stop-color:#0649AA"
         offset="1"
         id="stop25" />
    </linearGradient>
    <linearGradient
       y2="472.52539"
       y1="472.52539"
       x2="-263.46759"
       x1="-265.15671"
       id="XMLID_23_"
       gradientUnits="userSpaceOnUse"
       gradientTransform="matrix(0,-132.4658,-132.4658,0,62634.7,-34991.23)">
      <stop
         style="stop-color:#5471AF"
         offset="0"
         id="stop30" />
      <stop
         style="stop-color:#042676"
         offset="1"
         id="stop32" />
    </linearGradient>
    <linearGradient
       y2="472.52539"
       y1="472.52539"
       x2="-263.47281"
       x1="-265.15329"
       id="XMLID_24_"
       gradientUnits="userSpaceOnUse"
       gradientTransform="matrix(0,-132.4658,-132.4658,0,62634.7,-34991.23)">
      <stop
         style="stop-color:#68A0F2"
         offset="0"
         id="stop37" />
      <stop
         style="stop-color:#0536A3"
         offset="1"
         id="stop39" />
    </linearGradient>
    <radialGradient
       r="1.6703"
       id="XMLID_29_"
       gradientUnits="userSpaceOnUse"
       gradientTransform="matrix(16.7294,-0.005,-0.005,-16.7294,5488.48,7876.888)"
       cy="466.5723"
       cx="-325.7529">
      <stop
         style="stop-color:#B9DAF4"
         offset="0"
         id="stop94" />
      <stop
         style="stop-color:#7A97CB"
         offset="1"
         id="stop96" />
    </radialGradient>
    <linearGradient
       y2="460.08591"
       y1="460.08591"
       x2="-268.40671"
       x1="-270.08499"
       id="XMLID_31_"
       gradientUnits="userSpaceOnUse"
       gradientTransform="matrix(100.5501,113.7172,113.7172,-100.5501,-25191.77,76932.45)">
      <stop
         style="stop-color:#FFD8BF"
         offset="0"
         id="stop142" />
      <stop
         style="stop-color:#BF7400"
         offset="0.5393"
         id="stop144" />
      <stop
         style="stop-color:#000000"
         offset="1"
         id="stop146" />
    </linearGradient>
    <linearGradient
       y2="455.7695"
       y1="455.7695"
       x2="-266.5748"
       x1="-268.2695"
       id="XMLID_32_"
       gradientUnits="userSpaceOnUse"
       gradientTransform="matrix(25.1302,103.5121,103.5121,-25.1302,-40421.87,39142.23)">
      <stop
         style="stop-color:#FFD8BF"
         offset="0"
         id="stop153" />
      <stop
         style="stop-color:#BF7400"
         offset="0.5393"
         id="stop155" />
      <stop
         style="stop-color:#000000"
         offset="1"
         id="stop157" />
    </linearGradient>
    <linearGradient
       y2="460.10349"
       y1="460.10349"
       x2="-268.4006"
       x1="-270.08789"
       id="XMLID_33_"
       gradientUnits="userSpaceOnUse"
       gradientTransform="matrix(100.5501,113.7172,113.7172,-100.5501,-25191.77,76932.45)">
      <stop
         style="stop-color:#F3C192"
         offset="0"
         id="stop172" />
      <stop
         style="stop-color:#D49035"
         offset="0.5393"
         id="stop174" />
      <stop
         style="stop-color:#765735"
         offset="1"
         id="stop176" />
    </linearGradient>
    <linearGradient
       y2="455.76559"
       y1="455.76559"
       x2="-266.5824"
       x1="-268.2554"
       id="XMLID_34_"
       gradientUnits="userSpaceOnUse"
       gradientTransform="matrix(25.1302,103.5121,103.5121,-25.1302,-40421.87,39142.23)">
      <stop
         style="stop-color:#F3C192"
         offset="0"
         id="stop183" />
      <stop
         style="stop-color:#D49035"
         offset="0.5393"
         id="stop185" />
      <stop
         style="stop-color:#765735"
         offset="1"
         id="stop187" />
    </linearGradient>
    <radialGradient
       r="1.6849999"
       id="XMLID_35_"
       gradientUnits="userSpaceOnUse"
       gradientTransform="matrix(32.3192,0,0,-32.3192,9620.565,15111.81)"
       cy="466.05759"
       cx="-296.48679">
      <stop
         style="stop-color:#FFFA5F"
         offset="0"
         id="stop192" />
      <stop
         style="stop-color:#9F3300"
         offset="1"
         id="stop194" />
    </radialGradient>
    <radialGradient
       inkscape:collect="always"
       xlink:href="#XMLID_35_"
       id="radialGradient4212"
       gradientUnits="userSpaceOnUse"
       gradientTransform="matrix(-13.741788,0,0,-13.741788,-3374.644,6879.7172)"
       cx="-296.48679"
       cy="466.05759"
       r="1.6849999" />
    <linearGradient
       inkscape:collect="always"
       xlink:href="#XMLID_34_"
       id="linearGradient4215"
       gradientUnits="userSpaceOnUse"
       gradientTransform="matrix(-10.6851,44.012268,-44.012268,-10.6851,17902.879,17097.202)"
       x1="-268.2554"
       y1="455.76559"
       x2="-266.5824"
       y2="455.76559" />
    <linearGradient
       inkscape:collect="always"
       xlink:href="#XMLID_33_"
       id="linearGradient4219"
       gradientUnits="userSpaceOnUse"
       gradientTransform="matrix(-42.752857,48.351371,-48.351371,-42.752857,11427.199,33165.211)"
       x1="-270.08789"
       y1="460.10349"
       x2="-268.4006"
       y2="460.10349" />
    <linearGradient
       inkscape:collect="always"
       xlink:href="#XMLID_32_"
       id="linearGradient4227"
       gradientUnits="userSpaceOnUse"
       gradientTransform="matrix(-10.6851,44.012268,-44.012268,-10.6851,17902.879,17097.202)"
       x1="-268.2695"
       y1="455.7695"
       x2="-266.5748"
       y2="455.7695" />
    <linearGradient
       inkscape:collect="always"
       xlink:href="#XMLID_31_"
       id="linearGradient4231"
       gradientUnits="userSpaceOnUse"
       gradientTransform="matrix(-42.752857,48.351371,-48.351371,-42.752857,11427.199,33165.211)"
       x1="-270.08499"
       y1="460.08591"
       x2="-268.40671"
       y2="460.08591" />
    <radialGradient
       inkscape:collect="always"
       xlink:href="#XMLID_29_"
       id="radialGradient4248"
       gradientUnits="userSpaceOnUse"
       gradientTransform="matrix(-7.1131669,-0.00212595,0.00212595,-7.1131669,-1617.7245,3803.5036)"
       cx="-325.7529"
       cy="466.5723"
       r="1.6703" />
    <linearGradient
       inkscape:collect="always"
       xlink:href="#XMLID_24_"
       id="linearGradient4252"
       gradientUnits="userSpaceOnUse"
       gradientTransform="matrix(0,-56.323081,56.323081,0,-25915.703,-14423.574)"
       x1="-265.15329"
       y1="472.52539"
       x2="-263.47281"
       y2="472.52539" />
    <linearGradient
       inkscape:collect="always"
       xlink:href="#XMLID_23_"
       id="linearGradient4255"
       gradientUnits="userSpaceOnUse"
       gradientTransform="matrix(0,-56.323081,56.323081,0,-25915.703,-14423.574)"
       x1="-265.15671"
       y1="472.52539"
       x2="-263.46759"
       y2="472.52539" />
    <linearGradient
       inkscape:collect="always"
       xlink:href="#XMLID_22_"
       id="linearGradient4258"
       gradientUnits="userSpaceOnUse"
       gradientTransform="matrix(0,-56.323081,56.323081,0,-25915.703,-14423.574)"
       x1="-265.15579"
       y1="472.5498"
       x2="-263.46979"
       y2="472.5498" />
    <linearGradient
       inkscape:collect="always"
       xlink:href="#XMLID_21_"
       id="linearGradient4261"
       gradientUnits="userSpaceOnUse"
       gradientTransform="matrix(0,-56.323081,56.323081,0,-25915.703,-14423.574)"
       x1="-265.1528"
       y1="472.52829"
       x2="-263.4754"
       y2="472.52829" />
    <linearGradient
       inkscape:collect="always"
       xlink:href="#linearGradient10292-1-5"
       id="linearGradient15297-1"
       gradientUnits="userSpaceOnUse"
       x1="110.96875"
       y1="976.29968"
       x2="110.96875"
       y2="992.375" />
    <linearGradient
       id="linearGradient10292-1-5"
       inkscape:collect="always">
      <stop
         id="stop10294-4-6"
         offset="0"
         style="stop-color: rgb(102, 102, 102); stop-opacity: 1;" />
      <stop
         id="stop10296-2-9"
         offset="1"
         style="stop-color: rgb(51, 51, 51); stop-opacity: 1;" />
    </linearGradient>
    <linearGradient
       inkscape:collect="always"
       xlink:href="#linearGradient4274-3-3"
       id="linearGradient15279-0"
       gradientUnits="userSpaceOnUse"
       x1="158.4942"
       y1="2022.2076"
       x2="158.4942"
       y2="1982.2323" />
    <linearGradient
       id="linearGradient4274-3-3">
      <stop
         id="stop4276-8-6"
         offset="0"
         style="stop-color:#333333;stop-opacity:1" />
      <stop
         id="stop4278-0-0"
         offset="1"
         style="stop-color:#808080;stop-opacity:1" />
    </linearGradient>
    <filter
       id="filter4026-4-0"
       inkscape:label="Inner Shadow Rest"
       inkscape:menu="Shadows and Glows"
       inkscape:menu-tooltip="Adds a colorizable drop shadow inside"
       color-interpolation-filters="sRGB">
      <feGaussianBlur
         id="feGaussianBlur4028-7-2"
         stdDeviation="1"
         result="result8" />
      <feOffset
         id="feOffset4030-6-8"
         dx="1"
         dy="1"
         result="result11" />
      <feComposite
         id="feComposite4032-8-3"
         in2="result11"
         result="result6"
         in="SourceGraphic"
         operator="in" />
      <feFlood
         id="feFlood4034-9-5"
         result="result10"
         in="result6"
         flood-opacity="1"
         flood-color="rgb(51,51,51)" />
      <feBlend
         id="feBlend4036-0-9"
         in2="result10"
         mode="normal"
         in="result6"
         result="result12" />
      <feComposite
         id="feComposite4038-6-0"
         in2="SourceGraphic"
         result="result2"
         operator="in" />
    </filter>
    <linearGradient
       id="linearGradient4280-7-7"
       inkscape:collect="always">
      <stop
         id="stop4282-3-5"
         offset="0"
         style="stop-color:#18a303;stop-opacity:1" />
      <stop
         id="stop4284-2-1"
         offset="1"
         style="stop-color:#92e285;stop-opacity:1" />
    </linearGradient>
    <filter
       color-interpolation-filters="sRGB"
       inkscape:menu-tooltip="Adds a colorizable drop shadow inside"
       inkscape:menu="Shadows and Glows"
       inkscape:label="Inner Shadow Libre"
       id="filter4195-6-9">
      <feGaussianBlur
         result="result8"
         stdDeviation="1"
         id="feGaussianBlur4197-5-0" />
      <feOffset
         result="result11"
         dy="1"
         dx="1"
         id="feOffset4199-2-0" />
      <feComposite
         operator="in"
         in="SourceGraphic"
         result="result6"
         in2="result11"
         id="feComposite4201-6-3" />
      <feFlood
         flood-color="rgb(16,104,2)"
         flood-opacity="1"
         in="result6"
         result="result10"
         id="feFlood4203-5-0" />
      <feBlend
         result="result12"
         in="result6"
         mode="normal"
         in2="result10"
         id="feBlend4205-8-6" />
      <feComposite
         operator="in"
         result="result2"
         in2="SourceGraphic"
         id="feComposite4207-7-8" />
    </filter>
    <linearGradient
       y2="1972.8456"
       x2="160.76947"
       y1="2011.2181"
       x1="160.76947"
       gradientUnits="userSpaceOnUse"
       id="linearGradient5513"
       xlink:href="#linearGradient4280-7-7"
       inkscape:collect="always" />
    <linearGradient
       id="linearGradient3264">
      <stop
         id="stop3266"
         offset="0"
         style="stop-color:#c9c9c9;stop-opacity:1;" />
      <stop
         style="stop-color:#f8f8f8;stop-opacity:1;"
         offset="0.25"
         id="stop3276" />
      <stop
         style="stop-color:#e2e2e2;stop-opacity:1;"
         offset="0.5"
         id="stop3272" />
      <stop
         id="stop3274"
         offset="0.75"
         style="stop-color:#b0b0b0;stop-opacity:1;" />
      <stop
         id="stop3268"
         offset="1"
         style="stop-color:#c9c9c9;stop-opacity:1;" />
    </linearGradient>
    <linearGradient
       inkscape:collect="always"
       xlink:href="#linearGradient3264"
       id="linearGradient6904"
       gradientUnits="userSpaceOnUse"
       gradientTransform="matrix(1.241935,0,0,1.241935,305.86803,705.66099)"
       x1="14.462892"
       y1="12.284524"
       x2="34.534348"
       y2="39.684914" />
    <linearGradient
       inkscape:collect="always"
       xlink:href="#linearGradient3264"
       id="linearGradient6906"
       gradientUnits="userSpaceOnUse"
       gradientTransform="matrix(1.241935,0,0,1.241935,327.97866,738.31668)"
       x1="14.462892"
       y1="12.284524"
       x2="34.534348"
       y2="39.684914" />
    <linearGradient
       inkscape:collect="always"
       xlink:href="#linearGradient3264"
       id="linearGradient6908"
       gradientUnits="userSpaceOnUse"
       gradientTransform="matrix(0.90686162,0,0,0.90686214,355.81986,717.02938)"
       x1="14.462892"
       y1="12.284524"
       x2="34.534348"
       y2="39.684914" />
    <linearGradient
       inkscape:collect="always"
       xlink:href="#linearGradient3264"
       id="linearGradient6930"
       gradientUnits="userSpaceOnUse"
       gradientTransform="matrix(1.241935,0,0,1.241935,305.86803,705.66099)"
       x1="14.462892"
       y1="12.284524"
       x2="34.534348"
       y2="39.684914" />
    <linearGradient
       inkscape:collect="always"
       xlink:href="#linearGradient3264"
       id="linearGradient6932"
       gradientUnits="userSpaceOnUse"
       gradientTransform="matrix(1.241935,0,0,1.241935,327.97866,738.31668)"
       x1="14.462892"
       y1="12.284524"
       x2="34.534348"
       y2="39.684914" />
    <linearGradient
       inkscape:collect="always"
       xlink:href="#linearGradient3264"
       id="linearGradient6934"
       gradientUnits="userSpaceOnUse"
       gradientTransform="matrix(0.90686162,0,0,0.90686214,355.81986,717.02938)"
       x1="14.462892"
       y1="12.284524"
       x2="34.534348"
       y2="39.684914" />
  </defs>
  <sodipodi:namedview
     id="base"
     pagecolor="#ffffff"
     bordercolor="#666666"
     borderopacity="1.0"
     inkscape:pageopacity="0.0"
     inkscape:pageshadow="2"
     inkscape:zoom="1.1024111"
     inkscape:cx="343.84209"
     inkscape:cy="281.42484"
     inkscape:document-units="px"
     inkscape:current-layer="layer8"
     showgrid="false"
     inkscape:window-width="1560"
     inkscape:window-height="1011"
     inkscape:window-x="1630"
     inkscape:window-y="43"
     inkscape:window-maximized="0"
     fit-margin-left="5"
     fit-margin-top="5"
     fit-margin-bottom="5"
     fit-margin-right="5" />
  <metadata
     id="metadata7">
    <rdf:RDF>
      <cc:Work
         rdf:about="">
        <dc:format>image/svg+xml</dc:format>
        <dc:type
           rdf:resource="http://purl.org/dc/dcmitype/StillImage" />
        <dc:title></dc:title>
      </cc:Work>
    </rdf:RDF>
  </metadata>
  <g
     inkscape:label="Actors and places"
     inkscape:groupmode="layer"
     id="layer1"
     style="display:inline"
     transform="translate(-37.632289,-441.45644)">
    <rect
       style="color:#000000;fill:#babdb6;fill-opacity:1;fill-rule:evenodd;stroke:none;stroke-width:1;marker:none;visibility:visible;display:inline;overflow:visible;enable-background:accumulate"
       id="rect2985"
       width="166.17557"
       height="50.412788"
       x="395.92911"
       y="449.0061" />
    <text
       xml:space="preserve"
       style="font-size:15px;font-style:normal;font-variant:normal;font-weight:normal;font-stretch:normal;text-indent:0;text-align:start;text-decoration:none;line-height:125%;letter-spacing:0px;word-spacing:0px;text-transform:none;direction:ltr;block-progression:tb;writing-mode:lr-tb;text-anchor:start;color:#000000;fill:#000000;fill-opacity:1;fill-rule:nonzero;stroke:none;stroke-width:1px;marker:none;visibility:visible;display:inline;overflow:visible;enable-background:accumulate;font-family:URW Gothic L;-inkscape-font-specification:URW Gothic L Book"
       x="405.58517"
       y="466.67758"
       id="text2987"
       sodipodi:linespacing="125%"><tspan
         sodipodi:role="line"
         id="tspan2989"
         x="405.58517"
         y="466.67758">web application</tspan></text>
    <rect
       y="557.08997"
       x="398.29562"
       height="46.559376"
       width="136.63922"
       id="rect2991"
       style="color:#000000;fill:#d3d7cf;fill-opacity:1;fill-rule:evenodd;stroke:none;stroke-width:1;marker:none;visibility:visible;display:inline;overflow:visible;enable-background:accumulate" />
    <text
       xml:space="preserve"
       style="font-size:15px;font-style:normal;font-variant:normal;font-weight:normal;font-stretch:normal;text-indent:0;text-align:start;text-decoration:none;line-height:125%;letter-spacing:0px;word-spacing:0px;text-transform:none;direction:ltr;block-progression:tb;writing-mode:lr-tb;text-anchor:start;color:#000000;fill:#000000;fill-opacity:1;fill-rule:nonzero;stroke:none;stroke-width:1px;marker:none;visibility:visible;display:inline;overflow:visible;enable-background:accumulate;font-family:URW Gothic L;-inkscape-font-specification:URW Gothic L Book"
       x="407.70688"
       y="579.0174"
       id="text2987-3"
       sodipodi:linespacing="125%"><tspan
         sodipodi:role="line"
         id="tspan2989-7"
         x="407.70688"
         y="579.0174">rml_pdf_worker</tspan></text>
    <rect
       style="color:#000000;fill:#babdb6;fill-opacity:1;fill-rule:evenodd;stroke:none;stroke-width:1;marker:none;visibility:visible;display:inline;overflow:visible;enable-background:accumulate"
       id="rect3014"
       width="166.17557"
       height="50.412788"
       x="361.8443"
       y="669.73254" />
    <text
       sodipodi:linespacing="125%"
       id="text3016"
       y="693.44"
       x="372.14557"
       style="font-size:15px;font-style:normal;font-variant:normal;font-weight:normal;font-stretch:normal;text-indent:0;text-align:start;text-decoration:none;line-height:125%;letter-spacing:0px;word-spacing:0px;text-transform:none;direction:ltr;block-progression:tb;writing-mode:lr-tb;text-anchor:start;color:#000000;fill:#000000;fill-opacity:1;fill-rule:nonzero;stroke:none;stroke-width:1px;marker:none;visibility:visible;display:inline;overflow:visible;enable-background:accumulate;font-family:URW Gothic L;-inkscape-font-specification:URW Gothic L Book"
       xml:space="preserve"><tspan
         y="693.44"
         x="372.14557"
         id="tspan3018"
         sodipodi:role="line">wait_task</tspan></text>
    <path
       style="fill:none;stroke:#000000;stroke-width:0.99999994px;stroke-linecap:butt;stroke-linejoin:miter;stroke-opacity:1"
       d="m 50.404418,465.47677 0,21.90137 23.806062,0"
       id="path3026"
       inkscape:connector-curvature="0" />
    <text
       xml:space="preserve"
       style="font-size:15px;font-style:normal;font-variant:normal;font-weight:normal;font-stretch:normal;text-indent:0;text-align:start;text-decoration:none;line-height:125%;letter-spacing:0px;word-spacing:0px;text-transform:none;direction:ltr;block-progression:tb;writing-mode:lr-tb;text-anchor:start;color:#000000;fill:#000000;fill-opacity:1;fill-rule:nonzero;stroke:none;stroke-width:1px;marker:none;visibility:visible;display:inline;overflow:visible;enable-background:accumulate;font-family:URW Gothic L;-inkscape-font-specification:URW Gothic L Book"
       x="42.002289"
       y="457.54144"
       id="text3028"
       sodipodi:linespacing="125%"><tspan
         sodipodi:role="line"
         id="tspan3030"
         x="42.002289"
         y="457.54144">documents</tspan></text>
    <text
       xml:space="preserve"
       style="font-size:15px;font-style:normal;font-variant:normal;font-weight:normal;font-stretch:normal;text-indent:0;text-align:start;text-decoration:none;line-height:125%;letter-spacing:0px;word-spacing:0px;text-transform:none;direction:ltr;block-progression:tb;writing-mode:lr-tb;text-anchor:start;color:#000000;fill:#000000;fill-opacity:1;fill-rule:nonzero;stroke:none;stroke-width:1px;marker:none;visibility:visible;display:inline;overflow:visible;enable-background:accumulate;font-family:URW Gothic L;-inkscape-font-specification:URW Gothic L Book"
       x="81.679001"
       y="493.01709"
       id="text3032"
       sodipodi:linespacing="125%"><tspan
         sodipodi:role="line"
         id="tspan3034"
         x="81.679001"
         y="493.01709">in</tspan></text>
    <text
       xml:space="preserve"
       style="font-size:15px;font-style:normal;font-variant:normal;font-weight:normal;font-stretch:normal;text-indent:0;text-align:start;text-decoration:none;line-height:125%;letter-spacing:0px;word-spacing:0px;text-transform:none;direction:ltr;block-progression:tb;writing-mode:lr-tb;text-anchor:start;color:#000000;fill:#000000;fill-opacity:1;fill-rule:nonzero;stroke:none;stroke-width:1px;marker:none;visibility:visible;display:inline;overflow:visible;enable-background:accumulate;font-family:URW Gothic L;-inkscape-font-specification:URW Gothic L Book"
       x="235.44017"
       y="636.38177"
       id="text3036"
       sodipodi:linespacing="125%"><tspan
         sodipodi:role="line"
         id="tspan3038"
         x="235.44017"
         y="636.38177">done</tspan></text>
    <text
       xml:space="preserve"
       style="font-size:15px;font-style:normal;font-variant:normal;font-weight:normal;font-stretch:normal;text-indent:0;text-align:start;text-decoration:none;line-height:125%;letter-spacing:0px;word-spacing:0px;text-transform:none;direction:ltr;block-progression:tb;writing-mode:lr-tb;text-anchor:start;color:#000000;fill:#000000;fill-opacity:1;fill-rule:nonzero;stroke:none;stroke-width:1px;marker:none;visibility:visible;display:inline;overflow:visible;enable-background:accumulate;font-family:URW Gothic L;-inkscape-font-specification:URW Gothic L Book"
       x="235.44014"
       y="566.77014"
       id="text3040"
       sodipodi:linespacing="125%"><tspan
         sodipodi:role="line"
         id="tspan3042"
         x="235.44014"
         y="566.77014">rmlpdf</tspan></text>
    <text
       xml:space="preserve"
       style="font-size:15px;font-style:normal;font-variant:normal;font-weight:normal;font-stretch:normal;text-indent:0;text-align:start;text-decoration:none;line-height:125%;letter-spacing:0px;word-spacing:0px;text-transform:none;direction:ltr;block-progression:tb;writing-mode:lr-tb;text-anchor:start;color:#000000;fill:#000000;fill-opacity:1;fill-rule:nonzero;stroke:none;stroke-width:1px;marker:none;visibility:visible;display:inline;overflow:visible;enable-background:accumulate;font-family:URW Gothic L;-inkscape-font-specification:URW Gothic L Book"
       x="285.85297"
       y="599.91187"
       id="text3044"
       sodipodi:linespacing="125%"><tspan
         sodipodi:role="line"
         id="tspan3046"
         x="285.85297"
         y="599.91187">in</tspan></text>
    <text
       xml:space="preserve"
       style="font-size:15px;font-style:normal;font-variant:normal;font-weight:normal;font-stretch:normal;text-indent:0;text-align:start;text-decoration:none;line-height:125%;letter-spacing:0px;word-spacing:0px;text-transform:none;direction:ltr;block-progression:tb;writing-mode:lr-tb;text-anchor:start;color:#000000;fill:#000000;fill-opacity:1;fill-rule:nonzero;stroke:none;stroke-width:1px;marker:none;visibility:visible;display:inline;overflow:visible;enable-background:accumulate;font-family:URW Gothic L;-inkscape-font-specification:URW Gothic L Book"
       x="284.9194"
       y="621.38403"
       id="text3048"
       sodipodi:linespacing="125%"><tspan
         sodipodi:role="line"
         id="tspan3050"
         x="284.9194"
         y="621.38403">err</tspan></text>
    <path
       inkscape:connector-curvature="0"
       id="path3052"
       d="m 206.49948,542.22384 0,21.90137 23.80606,0"
       style="fill:none;stroke:#000000;stroke-width:0.99999994px;stroke-linecap:butt;stroke-linejoin:miter;stroke-opacity:1" />
    <path
       style="fill:none;stroke:#000000;stroke-width:0.99999994px;stroke-linecap:butt;stroke-linejoin:miter;stroke-opacity:1"
       d="m 50.404418,487.8436 0,21.90137 23.806062,0"
       id="path3054"
       inkscape:connector-curvature="0" />
    <text
       sodipodi:linespacing="125%"
       id="text3056"
       y="512.58325"
       x="80.278671"
       style="font-size:15px;font-style:normal;font-variant:normal;font-weight:normal;font-stretch:normal;text-indent:0;text-align:start;text-decoration:none;line-height:125%;letter-spacing:0px;word-spacing:0px;text-transform:none;direction:ltr;block-progression:tb;writing-mode:lr-tb;text-anchor:start;color:#000000;fill:#000000;fill-opacity:1;fill-rule:nonzero;stroke:none;stroke-width:1px;marker:none;visibility:visible;display:inline;overflow:visible;enable-background:accumulate;font-family:URW Gothic L;-inkscape-font-specification:URW Gothic L Book"
       xml:space="preserve"><tspan
         y="512.58325"
         x="80.278671"
         id="tspan3058"
         sodipodi:role="line">out</tspan></text>
    <path
       style="fill:none;stroke:#000000;stroke-width:0.99999994px;stroke-linecap:butt;stroke-linejoin:miter;stroke-opacity:1"
       d="m 255.04514,573.30511 0,21.90137 23.80606,0"
       id="path3062"
       inkscape:connector-curvature="0" />
    <path
       inkscape:connector-curvature="0"
       id="path3064"
       d="m 255.04514,596.17759 0,21.90137 23.80606,0"
       style="fill:none;stroke:#000000;stroke-width:0.99999994px;stroke-linecap:butt;stroke-linejoin:miter;stroke-opacity:1" />
    <text
       xml:space="preserve"
       style="font-size:15px;font-style:normal;font-variant:normal;font-weight:normal;font-stretch:normal;text-indent:0;text-align:start;text-decoration:none;line-height:125%;letter-spacing:0px;word-spacing:0px;text-transform:none;direction:ltr;block-progression:tb;writing-mode:lr-tb;text-anchor:start;color:#000000;fill:#000000;fill-opacity:1;fill-rule:nonzero;stroke:none;stroke-width:1px;marker:none;visibility:visible;display:inline;overflow:visible;enable-background:accumulate;font-family:URW Gothic L;-inkscape-font-specification:URW Gothic L Book"
       x="194.36304"
       y="518.75189"
       id="text3068"
       sodipodi:linespacing="125%"><tspan
         sodipodi:role="line"
         id="tspan3070"
         x="194.36304"
         y="518.75189">tasks</tspan></text>
    <path
       style="fill:none;stroke:#000000;stroke-width:0.99999988px;stroke-linecap:butt;stroke-linejoin:miter;stroke-opacity:1"
       d="m 206.49948,548.6261 0,85.38417 23.80606,0"
       id="path3072"
       inkscape:connector-curvature="0" />
    <path
       style="fill:none;stroke:#000000;stroke-width:0.99999994px;stroke-linecap:butt;stroke-linejoin:miter;stroke-opacity:1"
       d="m 206.49948,519.77928 0,21.90137 23.80606,0"
       id="path3080"
       inkscape:connector-curvature="0" />
    <text
       sodipodi:linespacing="125%"
       id="text3082"
       y="544.98572"
       x="235.44014"
       style="font-size:15px;font-style:normal;font-variant:normal;font-weight:normal;font-stretch:normal;text-indent:0;text-align:start;text-decoration:none;line-height:125%;letter-spacing:0px;word-spacing:0px;text-transform:none;direction:ltr;block-progression:tb;writing-mode:lr-tb;text-anchor:start;color:#000000;fill:#000000;fill-opacity:1;fill-rule:nonzero;stroke:none;stroke-width:1px;marker:none;visibility:visible;display:inline;overflow:visible;enable-background:accumulate;font-family:URW Gothic L;-inkscape-font-specification:URW Gothic L Book"
       xml:space="preserve"><tspan
         y="544.98572"
         x="235.44014"
         id="tspan3084"
         sodipodi:role="line">prepare</tspan></text>
    <g
       id="g4268">
      <path
         style="fill:#5691ff"
         id="path5"
         d="m 681.43223,498.70211 c 0,9.76618 9.36352,13.20767 17.75506,12.99252 9.31931,-0.23938 17.47189,-5.08144 16.24225,-15.36295 -1.0583,-8.85415 -8.02801,-19.0064 -17.93408,-18.41921 -10.10165,0.59824 -16.06323,11.6638 -16.06323,20.78964"
         inkscape:connector-curvature="0" />
      <path
         style="fill:#55b4ff"
         id="path7"
         d="m 698.28249,478.26155 c 9.6382,0 16.13637,10.16203 16.85409,18.84993 0.82912,10.0519 -7.93531,14.21323 -16.78266,14.21323 8.02631,0 16.65468,-3.59795 16.25117,-12.87091 -0.38649,-8.88221 -7.34132,-15.88678 -16.31622,-15.88678 -8.54801,0 -15.11974,6.27154 -15.82428,14.73919 -0.80829,9.72707 7.14233,14.0185 15.87615,14.0185 -8.54333,0 -16.88853,-3.97127 -16.51054,-13.61159 0.34781,-8.88391 6.53219,-19.45157 16.45229,-19.45157"
         inkscape:connector-curvature="0" />
      <path
         style="fill:#2b4ddd"
         id="path9"
         d="m 710.72524,484.2159 c 5.38885,6.74861 8.3469,19.07231 -0.0855,24.69841 -6.85831,4.57504 -19.39375,4.66859 -25.69379,-1.03236 -6.64741,-6.01558 -3.85264,-17.5008 1.00643,-23.72898 6.67802,-8.55821 18.02421,-8.369 24.77282,0.0629 m 4.54315,14.78937 c 0,-9.49236 -7.02541,-21.40234 -17.73551,-20.77987 -9.6467,0.5604 -15.43778,10.81768 -15.76773,19.55447 -0.34993,9.27552 7.26989,13.37009 15.65038,13.59077 8.00632,0.21174 17.85286,-2.78925 17.85286,-12.36537"
         inkscape:connector-curvature="0" />
      <path
         style="fill:#3f7cff"
         id="path11"
         d="m 698.3097,506.72841 c 5.69202,0 12.56308,-0.85335 16.71378,-5.20602 -1.4584,7.25501 -9.20876,9.67094 -15.72819,9.84825 -6.98927,0.19048 -15.57937,-1.87169 -17.25079,-9.75215 4.0291,4.28336 10.70585,5.10992 16.2652,5.10992"
         inkscape:connector-curvature="0" />
      <path
         style="fill:#3f7cff"
         id="path13"
         d="m 698.28249,478.07574 c -9.04846,0 -15.01259,9.1471 -15.96247,17.29373 -1.09869,9.42093 5.47644,14.54149 14.35228,15.0228 7.9672,0.43072 18.17685,-2.4848 18.17685,-12.10855 0,-8.8129 -6.06065,-19.51322 -15.71586,-20.1829 9.67094,0.65437 15.88976,11.12977 16.24565,19.97626 0.40563,10.06679 -9.29295,13.65199 -17.88093,13.43089 -8.91027,-0.22918 -16.55178,-4.85524 -15.81195,-14.61419 0.66245,-8.72914 6.88425,-18.81804 16.59643,-18.81804"
         inkscape:connector-curvature="0" />
      <path
         style="fill:url(#linearGradient4261)"
         id="path20"
         d="m 694.76617,486.6854 c 0.97751,1.19861 2.15826,2.39722 3.61709,1.32574 0.97241,0.92437 1.41758,0.92734 0.6246,2.16932 -0.67775,1.0583 -0.69603,1.78537 -2.04941,1.69736 -1.46393,-0.0965 -3.92833,-0.20537 -4.45514,-1.72967 -0.38905,-1.12548 -0.87589,-1.48349 0.216,-2.23905 0.65309,-0.45325 1.33977,-0.86016 2.04686,-1.2237 m -6.82217,-0.31039 c 0.25937,0.14542 0.51831,0.29083 0.7764,0.43752 -0.61185,0.21558 -0.46218,0.30657 -0.7764,-0.43752 m 19.56851,-1.07828 c 1.6272,1.08679 0.58463,1.79983 -0.68669,2.9623 -0.64926,0.59271 -1.21901,1.51155 -1.98691,0.84698 -0.51575,-0.44603 -1.15524,-0.85293 -1.57532,-1.39675 1.53153,-0.47536 4.36159,-0.0531 4.24892,-2.41253 m -1.25006,-4.44535 c 0.54382,0.38054 3.27353,2.1927 3.18467,2.90191 -0.96646,-1.07828 -2.06685,-1.98988 -3.18467,-2.90191 m -15.38124,-0.39968 c 0.3189,0.20154 -0.4018,0.36906 -0.61312,0.41243 0.20409,-0.13691 0.40903,-0.27552 0.61312,-0.41243"
         inkscape:connector-curvature="0" />
      <path
         style="fill:url(#linearGradient4258)"
         id="path27"
         d="m 690.88036,481.6333 c 0.2245,0.15817 0.449,0.31592 0.67435,0.47536 -0.20664,0.13266 -0.41456,0.26575 -0.6212,0.3984 -0.0179,-0.29083 -0.0353,-0.58293 -0.0531,-0.87376 m 15.87828,-0.35971 c 1.95673,1.47243 3.28842,2.45164 1.86404,4.83738 -1.37804,-1.10634 -1.50177,-2.58303 -2.64001,-4.00103 0.26702,-0.17603 1.15482,-0.50343 0.77597,-0.83635 m -15.81832,-0.78575 c 0.12288,0.074 0.24703,0.14839 0.36949,0.2211 -0.9975,0.7832 -0.1637,0.15519 -0.91119,0.14159 0.18028,-0.12076 0.36099,-0.24066 0.5417,-0.36269"
         inkscape:connector-curvature="0" />
      <path
         style="fill:url(#linearGradient4255)"
         id="path34"
         d="m 705.75222,480.43341 c 1.22115,0.80829 2.32961,1.77857 3.31776,2.85685 -0.29424,-0.31038 -3.03586,-3.04435 -3.31776,-2.85685 m -14.9131,-0.008 c 0.28403,0.18496 -0.41328,0.38182 -0.65011,0.46006 0.21599,-0.15222 0.43326,-0.30614 0.65011,-0.46006 m 15.43481,-0.33675 c 1.10719,0.73515 3.25993,1.96863 3.19105,3.4232 -1.08041,-1.18628 -2.30198,-2.24755 -3.65196,-3.11579 0.15435,-0.10332 0.30741,-0.20536 0.46091,-0.30741 m -15.96162,-0.0128 c 0.15222,0.10163 0.30401,0.20282 0.45623,0.30487 -1.25133,0.81508 -2.35257,1.77176 -3.36155,2.8747 0.0867,-1.4652 1.75603,-2.41465 2.90532,-3.17957"
         inkscape:connector-curvature="0" />
      <path
         style="fill:url(#linearGradient4252)"
         id="path41"
         d="m 688.02522,482.60911 c -0.20707,0.25171 -0.41584,0.5047 -0.62376,0.75641 -0.007,-0.34525 0.20154,-0.59696 0.62376,-0.75641 m 17.7878,-2.21354 c 0.77342,0.4979 3.72892,2.32834 3.63707,3.32243 -0.38692,-0.44857 -3.31945,-3.53077 -3.63707,-3.32243 m -15.04406,-0.0153 c 0.30742,0.19558 -0.92989,0.66669 -1.07147,0.76066 0.34695,-0.26872 0.70454,-0.52128 1.07147,-0.76066"
         inkscape:connector-curvature="0" />
      <path
         style="fill:#f4f4f4"
         id="path43"
         d="m 691.5815,479.61535 c 4.27443,-3.00652 9.83974,-2.51585 14.20176,0.16795 -1.24113,1.93504 -2.66041,3.76165 -4.2536,5.42032 -0.92776,0.96475 -2.59663,3.03457 -3.99253,3.31265 -3.15448,0.63055 -5.65842,-6.82429 -5.95563,-8.90092"
         inkscape:connector-curvature="0" />
      <path
         style="fill:url(#radialGradient4248)"
         id="path98"
         d="m 704.46177,481.15496 c -0.14371,0.97879 -0.65394,1.04299 -1.27642,0.5468 0.43454,-0.16073 0.85973,-0.34271 1.27642,-0.5468 m -12.58689,-0.13691 c 0.26362,0.12586 0.52681,0.25171 0.79043,0.37757 -0.18836,0.12033 -0.37757,0.24193 -0.56635,0.36354 -0.074,-0.24746 -0.14924,-0.49365 -0.22408,-0.74111 m 13.21192,-0.18878 c -0.1552,0.22535 -0.26447,0.14541 0,0"
         inkscape:connector-curvature="0" />
      <path
         style="fill:#fcd095"
         id="path135"
         d="m 685.04676,469.48011 c 0,7.15126 6.25199,12.7323 13.24891,12.7323 6.99692,0 13.24848,-5.58062 13.24848,-12.7323 0,-7.15339 -6.24816,-12.73911 -13.24848,-12.73911 -7.00117,0 -13.24891,5.58487 -13.24891,12.73911"
         inkscape:connector-curvature="0" />
      <path
         style="fill:#ffe2ae"
         id="path137"
         d="m 707.18171,464.69885 c -3.02097,-3.53673 -8.29035,-4.41134 -12.6209,-3.21614 -4.7481,1.31044 -7.15935,5.14862 -7.87707,9.82061 -1.05532,-6.94717 4.74512,-12.97126 11.61236,-12.97126 6.87489,0 12.66427,6.02876 11.6115,12.97721 -0.35844,-2.32834 -1.1782,-4.79274 -2.72589,-6.61042"
         inkscape:connector-curvature="0" />
      <path
         style="fill:#fabb78"
         id="path139"
         d="m 685.52383,467.94602 c 0.73515,5.6563 3.83946,9.98175 9.74917,11.01369 7.23247,1.26409 14.81871,-3.36325 15.79409,-11.01199 1.06553,7.84858 -5.96413,14.36928 -13.6167,13.88967 -7.07217,-0.44305 -12.84625,-6.71629 -11.92656,-13.89137"
         inkscape:connector-curvature="0" />
      <path
         style="fill:url(#linearGradient4231)"
         id="path148"
         d="m 711.08197,467.97791 c 0.34568,0.72027 0.16498,1.71309 0.0566,2.45845 0.0651,-0.81807 0.0459,-1.64464 -0.0566,-2.45845 m -25.36298,-1.1799 c -1.65909,7.19038 3.75272,14.06315 10.90016,14.96115 3.91047,0.49237 7.93148,-0.78618 10.78153,-3.5227 2.569,-2.46823 3.27991,-5.70392 4.51041,-8.8129 0,7.42381 -6.38805,13.14346 -13.61499,13.14346 -8.09476,0 -14.99559,-7.28435 -13.38072,-15.52027 -0.068,0.15519 -0.057,0.28827 0.0344,0.40137 0.29976,-0.16199 0.55572,-0.37884 0.76917,-0.65011 m -0.48727,-0.73856 c -0.0145,0.31635 -0.0145,0.31635 0,0 m 0.0132,-0.22067 c -0.0145,0.23726 -0.0145,0.23726 0,0 m 0.0106,-0.12883 c -0.01,0.12033 -0.003,0.0319 0,0"
         inkscape:connector-curvature="0" />
      <path
         style="fill:#c48e53"
         id="path150"
         d="m 688.86879,458.5842 c -2.26158,2.29942 -3.51504,4.30504 -3.6477,7.71166 0.007,-0.20154 2.55114,-2.38999 2.93891,-2.70591 0.95285,-0.77724 2.05154,0.8827 2.98186,1.35806 2.35172,1.20286 5.92629,2.11999 8.51739,1.26281 1.38485,-0.4575 2.99206,-1.38569 4.49213,-0.92989 0.86824,0.26447 1.42354,1.02216 1.76751,1.82322 0.34951,0.81253 0.40011,4.07204 0.92777,4.41644 0.20069,0.12968 1.90315,-3.73231 2.12977,-4.07629 2.75991,-4.17877 2.69273,3.12259 2.36406,3.03968 1.77431,0.44177 0.3882,-7.06028 0.12585,-7.64916 -1.24623,-2.79818 -3.51631,-4.95729 -6.26091,-6.27027 -4.96452,-2.37511 -12.29096,-2.12298 -16.33664,2.01965"
         inkscape:connector-curvature="0" />
      <path
         style="fill:url(#linearGradient4227)"
         id="path159"
         d="m 712.35542,467.21172 c -0.0327,0.75939 -0.48302,1.60126 -0.48302,2.30623 0.0961,-0.22535 -0.42944,1.04469 -0.53744,0.96305 -0.1739,-1.15651 0.78873,-2.14083 1.02046,-3.26928 m -23.39946,-5.12651 c 0.30656,0 1.35082,1.15269 1.66844,1.34955 0.92904,0.57486 1.96225,0.97581 3.01289,1.26706 2.78414,0.77172 4.99683,0.46984 7.75163,0.0153 1.59829,-0.26277 2.98696,-1.22072 4.15878,0.33718 0.45156,0.59994 1.60595,5.3374 1.48051,5.3374 0.59995,0 1.70246,-3.46955 2.02221,-3.9853 0.37799,-0.61142 1.5328,-1.52686 2.26243,-0.9469 0.75429,0.59867 0.37077,2.21099 0.25086,2.99121 0.31932,-1.69778 -0.7224,-2.39127 -2.13402,-1.51027 -0.55318,0.52978 -2.05069,4.6537 -2.55922,4.59077 -0.17475,-0.0404 -0.83762,-4.29016 -1.19521,-4.92072 -0.49577,-0.87717 -1.29087,-1.43884 -2.31431,-1.43884 -1.75263,0.06 -3.26885,1.30448 -5.00193,1.30448 -2.20035,0 -4.45556,-0.33292 -6.49307,-1.19138 -0.67945,-0.28658 -2.51967,-2.05707 -3.04988,-2.05707 -1.38867,-0.26999 -2.30028,3.14811 -3.54651,3.14811 -0.19516,0 0.12841,-1.86276 0.15052,-1.98692 -0.1756,0.32442 -0.17816,0.60675 -0.009,0.84741 1.31936,-4.3e-4 2.06387,-3.15108 3.54481,-3.15108"
         inkscape:connector-curvature="0" />
      <path
         style="fill:#d8ac77"
         id="path161"
         d="m 690.68478,462.27569 c 0,4.05929 14.89184,3.6932 14.89184,0.27085 -2.73652,0.59824 -5.7643,1.09529 -8.56247,0.80616 -0.72665,-0.0761 -6.32937,-2.08301 -6.32937,-1.07701"
         inkscape:connector-curvature="0" />
      <path
         style="fill:#f3d4b2"
         id="path163"
         d="m 685.55912,463.68222 c -0.25894,1.10039 -0.42477,2.25308 -0.64417,3.36495 0.0706,-1.14121 0.25682,-2.28539 0.64417,-3.36495"
         inkscape:connector-curvature="0" />
      <path
         style="fill:#f2bd7e"
         id="path165"
         d="m 710.70568,466.45658 c 0.2245,0 0.35546,1.36188 0.37629,1.52133 0.0383,0.0812 -0.0149,-0.0378 -0.0149,-0.0306 -0.24746,-0.47962 -0.75429,-0.47834 -1.20329,-0.31507 -0.16369,-0.87929 -0.17645,-1.17565 0.84188,-1.17565 m -20.8649,-2.32408 c 1.55151,1.19988 3.54565,1.79855 5.45603,2.10468 2.79732,0.45028 4.31142,-0.26574 6.96248,-0.91585 3.52184,-0.86399 4.25572,3.01629 4.45769,5.72347 -0.0634,0.26022 -0.007,0.42222 0.16922,0.4877 0.93244,-1.11613 1.23475,-2.68465 1.99372,-3.93641 0.14158,0.34398 -1.7773,5.00618 -2.31559,5.00618 -0.98346,0 -0.0719,-7.15424 -4.39306,-6.26474 -2.65488,0.54509 -4.30079,1.42183 -7.1215,0.98134 -2.07195,-0.32442 -4.31099,-0.98857 -5.90333,-2.42146 0.21685,-0.26829 0.44773,-0.52298 0.69434,-0.76491 m -1.2845,-0.81807 c -0.9014,1.27812 -1.74073,2.3479 -2.83729,3.48358 0.31124,-1.35083 1.59488,-2.80668 2.83729,-3.48358"
         inkscape:connector-curvature="0" />
      <path
         style="fill:#f3c58a"
         id="path167"
         d="m 709.67374,466.79801 c 0.34951,1.29343 0.29551,0.54382 -0.61525,1.25133 -0.23895,-0.64033 0.0566,-0.94264 0.61525,-1.25133 m -20.85682,-3.57032 c 0.27977,0 0.81764,0.74536 1.02386,0.90481 -0.24661,0.24193 -0.47749,0.49662 -0.69349,0.76534 -0.70029,-0.62928 -0.69306,-0.78193 -1.48093,-0.0855 0.1807,-0.36651 0.62417,-1.58468 1.15056,-1.58468"
         inkscape:connector-curvature="0" />
      <path
         style="fill:#f1b26f"
         id="path169"
         d="m 711.1381,470.43636 c -0.0459,0.36651 -0.0914,0.73302 -0.13776,1.09911 0.017,-0.36906 0.0633,-0.73558 0.13776,-1.09911 m -0.071,-2.49034 c 0,0.002 0,0.002 0,0"
         inkscape:connector-curvature="0" />
      <path
         style="fill:url(#linearGradient4219)"
         id="path178"
         d="m 710.78944,466.46083 c 0.90481,0.0825 0.81467,1.43332 0.76747,2.03879 10e-4,-0.009 -0.32187,1.91548 -0.22152,1.98138 0.16795,-0.31166 0.39415,-0.60802 0.53616,-0.95753 -0.0531,0.24194 -0.47324,2.03751 -0.84953,2.03751 0.62333,0 -0.10375,-4.6065 -0.23258,-5.10015 m -25.53518,-0.75088 c -0.014,0.19559 -0.0251,0.3899 -0.0332,0.58549 l 0,0 0,0 0,0 0,0 c -0.008,0.0506 0.009,0.077 0.0493,0.0799 0.28828,-0.15392 0.53532,-0.36099 0.73983,-0.62248 -0.11905,0.36099 -0.32994,1.69481 -1.06085,1.69481 -0.21769,4.2e-4 0.27383,-1.63698 0.30487,-1.73775"
         inkscape:connector-curvature="0" />
      <path
         style="fill:#d69c5d"
         id="path180"
         d="m 706.82795,471.50486 c 0.017,0.0183 0.0361,0.0281 0.0587,0.0281 l 0,0 c -0.0196,-0.01 -0.0391,-0.02 -0.0587,-0.0281 m 4.5474,-1.03789 c -0.0106,0.006 -0.0208,0.0115 -0.0315,0.017 0.0106,-0.006 0.0208,-0.0111 0.0315,-0.017 m 0.28445,-0.47791 c -0.0281,0.0532 -0.0561,0.10757 -0.0838,0.16072 0.0281,-0.0532 0.0561,-0.10757 0.0838,-0.16072 m 0.0812,-0.16625 c -0.0455,0.0918 -0.0455,0.0918 0,0 m 0.0791,-0.17646 c -0.0595,0.13309 -0.0595,0.13309 0,0 m 0.0519,-0.12713 c 0,0.006 -0.0833,0.2109 0,0 m -1.16629,-3.06264 c 0.15604,0.0502 0.31081,0.10077 0.46728,0.15094 -0.6837,-0.32016 -1.91845,0.44305 -1.74242,0.33293 0.38437,-0.27553 0.80956,-0.43752 1.27514,-0.48387 m -25.46673,-0.0906 c 0.0106,0.003 0.0213,0.007 0.0315,0.01 l 0,0 c -0.0102,-0.003 -0.0208,-0.007 -0.0315,-0.01 m -0.005,-0.34866 c -0.003,0.0561 -0.003,0.0561 0,0 m 0.0157,-0.25001 c -0.006,0.0952 -0.006,0.0952 0,0 m 18.03229,-0.59569 c -0.71176,0.0502 -1.39972,0.20664 -2.06344,0.47111 0.66287,-0.23641 1.3538,-0.45155 2.06344,-0.47111 m 0.0795,0 c 0.10163,0 0.10163,0 0,0 m -16.45228,-0.37077 c -0.17943,0.19176 -0.36014,0.3831 -0.53999,0.57486 0.17985,-0.19176 0.35928,-0.3831 0.53999,-0.57486 m -1.34062,-1.14631 c -0.15392,0.65564 -0.25682,1.31852 -0.30912,1.98989 0.031,-0.38905 0.15987,-1.59999 0.30912,-1.98989 m 3.24802,-0.42689 c 0.13308,0.0378 0.13308,0.0378 0,0"
         inkscape:connector-curvature="0" />
      <path
         style="fill:url(#linearGradient4215)"
         id="path189"
         d="m 711.33496,470.481 c 0.0119,0.004 0.0119,0.004 0,0 m 0.53744,-0.96305 c 0,0.22195 -0.38395,0.84442 -0.49705,0.94902 0.20452,-0.29508 0.37077,-0.61057 0.49705,-0.94902 m -0.40606,-0.20579 c 0,-0.42264 -0.17688,1.13525 -0.13138,1.16884 -0.009,-0.39415 0.0357,-0.78447 0.13138,-1.16884 m -2.21183,-2.2246 c -0.44305,0.57316 -1.77092,4.44536 -2.36788,4.44536 1.16119,-1.19308 1.1816,-3.22761 2.36788,-4.44536 m 0.1756,-0.14711 0,0 0,0 0,0 0,0 m 1.74243,-0.3325 c 0.48174,0.38437 0.47451,1.37039 0.38394,1.89209 0.0434,-0.54849 0.12246,-1.48391 -0.38394,-1.89209 m -25.95145,-0.31209 c 0.0238,0.0923 0.0238,0.0923 0,0 l 0,0 0,0 0,0 m 1.14844,-0.92011 c -0.19729,0.24321 -0.75514,1.00005 -1.09912,1.00005 0.42307,-0.26745 0.78958,-0.60122 1.09912,-1.00005 m 17.06881,-0.20409 c 0.99282,0.0234 1.75773,0.58974 2.2382,1.43884 0.35758,0.63013 1.02003,4.88033 1.1952,4.92072 -0.15944,-0.0838 -0.21046,-0.24618 -0.15391,-0.48642 -0.14244,-2.0205 -0.53617,-5.80894 -3.27949,-5.87314 m -0.0765,0 0,0 c -0.16199,-0.002 -0.32356,0.01 -0.48429,0.0319 0.16158,-0.0111 0.32272,-0.0221 0.48429,-0.0319 m -14.44496,-1.91591 c 1.85808,1.23901 3.16086,2.31176 5.47049,2.81051 3.16213,0.6837 5.01553,-0.10332 7.99654,-0.7747 -2.66339,0.60165 -4.24169,1.39845 -7.059,0.94945 -2.70165,-0.42902 -4.25487,-1.55067 -6.40803,-2.98526 m -0.10035,-0.0281 c 4.3e-4,0 4.3e-4,0 0,0 -0.80531,0.32017 -1.38314,1.03661 -1.9767,1.64761 0.38182,-0.39287 1.30023,-1.64761 1.9767,-1.64761"
         inkscape:connector-curvature="0" />
      <path
         style="fill:url(#radialGradient4212)"
         id="path196"
         d="m 712.00421,468.33039 c 0,-7.95359 -7.83157,-13.2978 -15.3115,-12.43594 -8.16067,0.94094 -14.46878,9.2517 -10.85595,17.24654 -4.91816,-8.8465 3.33519,-18.80826 12.59795,-18.80826 9.2636,0 17.42937,9.9928 12.52651,18.80953 0.682,-1.50899 1.04299,-3.15448 1.04299,-4.81187"
         inkscape:connector-curvature="0" />
    </g>
  </g>
  <g
     inkscape:groupmode="layer"
     id="layer8"
     inkscape:label="user request - 0"
     style="display:inline"
     transform="translate(-37.632289,-441.45644)">
    <path
       sodipodi:nodetypes="cc"
       inkscape:connector-curvature="0"
       id="path5863"
       d="M 666.34979,475.88471 564.69711,461.71588"
       style="fill:none;stroke:#a40000;stroke-width:1px;stroke-linecap:butt;stroke-linejoin:miter;stroke-opacity:1;marker-end:url(#Arrow1Lend);display:inline" />
  </g>
  <g
     inkscape:groupmode="layer"
     id="layer2"
     inkscape:label="preparing response - 1,2"
     style="display:inline"
     transform="translate(-37.632289,-441.45644)">
    <path
       style="fill:none;stroke:#204a87;stroke-width:1px;stroke-linecap:butt;stroke-linejoin:miter;stroke-opacity:1;marker-end:url(#Arrow1Lend);display:inline"
       d="m 395.08073,466.47193 -227.97435,8.84436"
       id="path3100"
       inkscape:connector-curvature="0"
       sodipodi:nodetypes="cc" />
    <path
       transform="matrix(0.67590938,0,0,0.67590938,140.05911,267.7701)"
       d="m 268.86831,402.13028 a 11.202847,11.669632 0 1 1 -22.40569,0 11.202847,11.669632 0 1 1 22.40569,0 z"
       sodipodi:ry="11.669632"
       sodipodi:rx="11.202847"
       sodipodi:cy="402.13028"
       sodipodi:cx="257.66547"
       id="path3076"
       style="color:#000000;fill:#fcaf3e;fill-opacity:1;fill-rule:evenodd;stroke:none;stroke-width:1;marker:none;visibility:visible;display:inline;overflow:visible;enable-background:accumulate"
       sodipodi:type="arc" />
    <path
       sodipodi:nodetypes="cc"
       inkscape:connector-curvature="0"
       id="path5871"
       d="m 396.0143,473.00693 -70.01779,65.34993"
       style="fill:none;stroke:#ce5c00;stroke-width:1px;stroke-linecap:butt;stroke-linejoin:miter;stroke-opacity:1;marker-start:none;marker-end:url(#Arrow1Lend);display:inline" />
    <g
       style="display:inline"
       id="g6893"
       transform="matrix(0.61232666,0,0,0.61232666,322.00378,27.761875)">
      <path
         id="path3243"
         d="m 334.14554,713.33873 c -0.46544,0.0318 -0.91783,0.10393 -1.375,0.15625 l -0.0312,0 -1.09375,5.96875 c -1.78273,0.40599 -3.45991,1.09499 -4.96875,2.03125 l -4.90625,-3.53125 c -1.32629,1.02969 -2.5332,2.2306 -3.59375,3.53125 l 3.40625,4.96875 c -1.03423,1.58052 -1.81197,3.38522 -2.25,5.28125 -8e-5,0.009 -6e-5,0.0297 0,0.0312 l -5.9375,0.9375 c -0.10855,0.88663 -0.15625,1.80294 -0.15625,2.71875 0,0.7493 0.0207,1.48859 0.0937,2.21875 l 5.9375,1.0625 c 0.42228,2.06189 1.22446,3.98751 2.34375,5.6875 l -3.53125,4.84375 c 1.01133,1.25552 2.17889,2.39862 3.4375,3.40625 l 5,-3.4375 c 1.74743,1.11472 3.69808,1.89637 5.8125,2.28125 l 0.9375,5.90625 c 0.66618,0.0606 1.34935,0.0625 2.03125,0.0625 0.96268,0 1.88224,-0.0365 2.8125,-0.15625 l 1.125,-6.03125 c 2.00756,-0.4996 3.89347,-1.36629 5.53125,-2.53125 l 4.8125,3.5 c 1.24803,-1.0618 2.38928,-2.28226 3.375,-3.59375 l -3.5,-5.0625 c 0.94785,-1.63699 1.60463,-3.44314 1.9375,-5.375 l 5.90625,-0.9375 c 0.0518,-0.61635 0.0625,-1.21409 0.0625,-1.84375 0,-1.09421 -0.12718,-2.16708 -0.28125,-3.21875 l -6,-1.09375 c -0.47019,-1.73622 -1.24168,-3.3561 -2.21875,-4.8125 l 3.53125,-4.84375 c -1.09457,-1.33861 -2.34318,-2.57518 -3.71875,-3.625 l -5.09375,3.5 c -1.464,-0.86584 -3.03946,-1.53018 -4.75,-1.90625 l -0.9375,-5.9375 c -0.8533,-0.10038 -1.71362,-0.15625 -2.59375,-0.15625 -0.23787,0 -0.48268,-0.007 -0.71875,0 -0.11508,0.004 -0.22897,-0.007 -0.34375,0 -0.0311,0.002 -0.0627,-0.002 -0.0937,0 z m 0.8125,15.1875 c 0.11417,-0.006 0.22815,0 0.34375,0 3.69913,0 6.71875,3.01962 6.71875,6.71875 0,3.69913 -3.01962,6.6875 -6.71875,6.6875 -3.69913,0 -6.6875,-2.98837 -6.6875,-6.6875 0,-3.58353 2.8046,-6.53916 6.34375,-6.71875 z"
         style="color:#000000;fill:url(#linearGradient6904);fill-opacity:1;fill-rule:nonzero;stroke:#808080;stroke-width:1.63311529;stroke-linecap:butt;stroke-linejoin:miter;stroke-miterlimit:4;stroke-opacity:1;stroke-dasharray:none;stroke-dashoffset:0;marker:none;visibility:visible;display:inline;overflow:visible"
         inkscape:connector-curvature="0" />
      <path
         transform="matrix(0.606518,0,0,0.606518,321.04575,720.80682)"
         d="m 36.239223,23.781593 a 12.727922,12.727922 0 1 1 -25.455844,0 12.727922,12.727922 0 1 1 25.455844,0 z"
         sodipodi:ry="12.727922"
         sodipodi:rx="12.727922"
         sodipodi:cy="23.781593"
         sodipodi:cx="23.511301"
         id="path3283"
         style="opacity:0.64772728;color:#000000;fill:none;stroke:#ffffff;stroke-width:2.69260812;stroke-linecap:butt;stroke-linejoin:miter;stroke-miterlimit:4;stroke-opacity:1;stroke-dasharray:none;stroke-dashoffset:0;marker:none;visibility:visible;display:inline;overflow:visible"
         sodipodi:type="arc" />
      <path
         sodipodi:nodetypes="ccccccccccccccccccccccccccccccccc"
         style="opacity:0.34659089;color:#000000;fill:none;stroke:#ffffff;stroke-width:1.63311481;stroke-linecap:butt;stroke-linejoin:miter;stroke-miterlimit:4;stroke-opacity:1;stroke-dasharray:none;stroke-dashoffset:0;marker:none;visibility:visible;display:inline;overflow:visible"
         d="m 333.45333,714.52009 -0.87819,5.77901 c -1.671,0.38055 -4.74473,1.54441 -6.15901,2.422 l -4.67203,-3.48719 c -1.24317,0.96516 -1.32842,1.03061 -2.32251,2.24975 l 3.37806,5.00995 c -0.96942,1.48147 -2.13381,4.1215 -2.55188,6.00809 0,0 -5.91941,0.99784 -5.91941,0.99784 -0.10175,0.83107 -0.0528,2.6098 0.0156,3.2942 l 5.65424,1.01859 c 0.39581,1.93267 1.87703,5.04359 2.92617,6.63703 l -3.57557,4.72405 c 0.94794,1.17683 1.13766,1.28452 2.31739,2.229 l 4.78117,-3.50282 c 1.63792,1.04486 4.88903,2.31589 6.87093,2.67664 l 0.78469,5.70626 c 0.62443,0.0568 2.34948,0.21628 3.22144,0.10402 l 0.87819,-5.94016 c 1.88174,-0.46829 5.13316,-1.80296 6.6683,-2.89491 l 4.77605,3.45081 c 1.16982,-0.99525 1.1803,-1.14521 2.10424,-2.37451 l -3.5392,-5.03071 c 0.88845,-1.53439 2.03723,-4.53522 2.34924,-6.346 l 5.79464,-0.96147 c 0.0485,-0.57772 0.0509,-2.18879 -0.0935,-3.17454 l -5.90378,-1.01859 c -0.44072,-1.62741 -1.95321,-4.55998 -2.86904,-5.9251 l 3.75235,-4.72405 c -1.02597,-1.25471 -1.40745,-1.42687 -2.69681,-2.41089 l -4.94231,3.53919 c -1.37225,-0.81157 -4.10862,-2.04874 -5.71195,-2.40124 l -0.87307,-5.65425 c -0.79983,-0.0941 -3.1074,-0.0523 -3.56448,0 z"
         id="path3285"
         inkscape:connector-curvature="0" />
      <path
         inkscape:connector-curvature="0"
         style="color:#000000;fill:url(#linearGradient6906);fill-opacity:1;fill-rule:nonzero;stroke:#808080;stroke-width:1.63311529;stroke-linecap:butt;stroke-linejoin:miter;stroke-miterlimit:4;stroke-opacity:1;stroke-dasharray:none;stroke-dashoffset:0;marker:none;visibility:visible;display:inline;overflow:visible"
         d="m 356.25617,745.99442 c -0.46544,0.0318 -0.91783,0.10393 -1.375,0.15625 l -0.0312,0 -1.09375,5.96875 c -1.78273,0.40599 -3.45991,1.09499 -4.96875,2.03125 l -4.90625,-3.53125 c -1.32629,1.02969 -2.5332,2.2306 -3.59375,3.53125 l 3.40625,4.96875 c -1.03423,1.58052 -1.81197,3.38522 -2.25,5.28125 -8e-5,0.009 -6e-5,0.0297 0,0.0312 l -5.9375,0.9375 c -0.10855,0.88663 -0.15625,1.80294 -0.15625,2.71875 0,0.7493 0.0207,1.48859 0.0937,2.21875 l 5.9375,1.0625 c 0.42228,2.06189 1.22446,3.98751 2.34375,5.6875 l -3.53125,4.84375 c 1.01133,1.25552 2.17889,2.39862 3.4375,3.40625 l 5,-3.4375 c 1.74743,1.11472 3.69808,1.89637 5.8125,2.28125 l 0.9375,5.90625 c 0.66618,0.0606 1.34935,0.0625 2.03125,0.0625 0.96268,0 1.88224,-0.0365 2.8125,-0.15625 l 1.125,-6.03125 c 2.00756,-0.4996 3.89347,-1.36629 5.53125,-2.53125 l 4.8125,3.5 c 1.24803,-1.0618 2.38928,-2.28226 3.375,-3.59375 l -3.5,-5.0625 c 0.94785,-1.63699 1.60463,-3.44314 1.9375,-5.375 l 5.90625,-0.9375 c 0.0518,-0.61635 0.0625,-1.21409 0.0625,-1.84375 0,-1.09421 -0.12718,-2.16708 -0.28125,-3.21875 l -6,-1.09375 c -0.47019,-1.73622 -1.24168,-3.3561 -2.21875,-4.8125 l 3.53125,-4.84375 c -1.09457,-1.33861 -2.34318,-2.57518 -3.71875,-3.625 l -5.09375,3.5 c -1.464,-0.86584 -3.03946,-1.53018 -4.75,-1.90625 l -0.9375,-5.9375 c -0.8533,-0.10038 -1.71362,-0.15625 -2.59375,-0.15625 -0.23787,0 -0.48268,-0.007 -0.71875,0 -0.11508,0.004 -0.22897,-0.007 -0.34375,0 -0.0311,0.002 -0.0627,-0.002 -0.0937,0 z m 0.8125,15.1875 c 0.11417,-0.006 0.22815,0 0.34375,0 3.69913,0 6.71875,3.01962 6.71875,6.71875 0,3.69913 -3.01962,6.6875 -6.71875,6.6875 -3.69913,0 -6.6875,-2.98837 -6.6875,-6.6875 0,-3.58353 2.8046,-6.53916 6.34375,-6.71875 z"
         id="path6877" />
      <path
         sodipodi:type="arc"
         style="opacity:0.64772728;color:#000000;fill:none;stroke:#ffffff;stroke-width:2.69260812;stroke-linecap:butt;stroke-linejoin:miter;stroke-miterlimit:4;stroke-opacity:1;stroke-dasharray:none;stroke-dashoffset:0;marker:none;visibility:visible;display:inline;overflow:visible"
         id="path6879"
         sodipodi:cx="23.511301"
         sodipodi:cy="23.781593"
         sodipodi:rx="12.727922"
         sodipodi:ry="12.727922"
         d="m 36.239223,23.781593 a 12.727922,12.727922 0 1 1 -25.455844,0 12.727922,12.727922 0 1 1 25.455844,0 z"
         transform="matrix(0.606518,0,0,0.606518,343.15638,753.46251)" />
      <path
         inkscape:connector-curvature="0"
         id="path6881"
         d="m 355.56396,747.17578 -0.87819,5.77901 c -1.671,0.38055 -4.74473,1.54441 -6.15901,2.422 l -4.67203,-3.48719 c -1.24317,0.96516 -1.32842,1.03061 -2.32251,2.24975 l 3.37806,5.00995 c -0.96942,1.48147 -2.13381,4.1215 -2.55188,6.00809 0,0 -5.91941,0.99784 -5.91941,0.99784 -0.10175,0.83107 -0.0528,2.6098 0.0156,3.2942 l 5.65424,1.01859 c 0.39581,1.93267 1.87703,5.04359 2.92617,6.63703 l -3.57557,4.72405 c 0.94794,1.17683 1.13766,1.28452 2.31739,2.229 l 4.78117,-3.50282 c 1.63792,1.04486 4.88903,2.31589 6.87093,2.67664 l 0.78469,5.70626 c 0.62443,0.0568 2.34948,0.21628 3.22144,0.10402 l 0.87819,-5.94016 c 1.88174,-0.46829 5.13316,-1.80296 6.6683,-2.89491 l 4.77605,3.45081 c 1.16982,-0.99525 1.1803,-1.14521 2.10424,-2.37451 l -3.5392,-5.03071 c 0.88845,-1.53439 2.03723,-4.53522 2.34924,-6.346 l 5.79464,-0.96147 c 0.0485,-0.57772 0.0509,-2.18879 -0.0935,-3.17454 l -5.90378,-1.01859 c -0.44072,-1.62741 -1.95321,-4.55998 -2.86904,-5.9251 l 3.75235,-4.72405 c -1.02597,-1.25471 -1.40745,-1.42687 -2.69681,-2.41089 l -4.94231,3.53919 c -1.37225,-0.81157 -4.10862,-2.04874 -5.71195,-2.40124 l -0.87307,-5.65425 c -0.79983,-0.0941 -3.1074,-0.0523 -3.56448,0 z"
         style="opacity:0.34659089;color:#000000;fill:none;stroke:#ffffff;stroke-width:1.63311481;stroke-linecap:butt;stroke-linejoin:miter;stroke-miterlimit:4;stroke-opacity:1;stroke-dasharray:none;stroke-dashoffset:0;marker:none;visibility:visible;display:inline;overflow:visible"
         sodipodi:nodetypes="ccccccccccccccccccccccccccccccccc" />
      <path
         id="path6885"
         d="m 376.46811,722.63568 c -0.33986,0.0232 -0.6702,0.0759 -1.00403,0.11409 l -0.0228,0 -0.79865,4.35839 c -1.30176,0.29645 -2.52643,0.79956 -3.62819,1.48322 l -3.58255,-2.57853 c -0.96845,0.75189 -1.84974,1.62879 -2.62415,2.57853 l 2.48724,3.62818 c -0.75519,1.1541 -1.3231,2.47189 -1.64295,3.85638 -6e-5,0.007 -4e-5,0.0217 0,0.0228 l -4.33556,0.68456 c -0.0793,0.64742 -0.1141,1.31651 -0.1141,1.98524 0,0.54714 0.0151,1.08697 0.0684,1.62013 l 4.33557,0.77584 c 0.30835,1.50559 0.8941,2.91168 1.7114,4.15302 l -2.57852,3.53691 c 0.73848,0.91678 1.59103,1.75147 2.51007,2.48724 l 3.651,-2.51006 c 1.27598,0.81397 2.70034,1.38473 4.24429,1.66577 l 0.68456,4.31275 c 0.48645,0.0442 0.9853,0.0456 1.48322,0.0456 0.70295,0 1.37442,-0.0267 2.05369,-0.1141 l 0.82148,-4.40402 c 1.46592,-0.36481 2.84301,-0.99767 4.03892,-1.84832 l 3.51409,2.5557 c 0.91131,-0.77533 1.74465,-1.66651 2.46443,-2.62416 l -2.5557,-3.69664 c 0.69212,-1.19533 1.1717,-2.51419 1.41476,-3.92483 l 4.31275,-0.68457 c 0.0378,-0.45006 0.0456,-0.88653 0.0456,-1.3463 0,-0.799 -0.0929,-1.58241 -0.20536,-2.35034 l -4.38121,-0.79866 c -0.34333,-1.26778 -0.90667,-2.45062 -1.62013,-3.51409 l 2.57852,-3.53691 c -0.79926,-0.97745 -1.71099,-1.8804 -2.71543,-2.64698 l -3.71946,2.55571 c -1.06902,-0.63224 -2.21942,-1.11734 -3.46845,-1.39195 l -0.68457,-4.33557 c -0.62308,-0.0733 -1.25128,-0.11409 -1.89396,-0.11409 -0.17369,0 -0.35245,-0.005 -0.52483,0 -0.084,0.003 -0.16719,-0.005 -0.251,0 -0.0227,10e-4 -0.0458,-10e-4 -0.0684,0 z m 0.59329,11.08992 c 0.0834,-0.004 0.16659,0 0.251,0 2.70111,0 4.90604,2.20493 4.90604,4.90604 0,2.70111 -2.20493,4.88322 -4.90604,4.88322 -2.7011,0 -4.88321,-2.18211 -4.88321,-4.88322 0,-2.6167 2.04792,-4.7749 4.63221,-4.90604 z"
         style="color:#000000;fill:url(#linearGradient6908);fill-opacity:1;fill-rule:nonzero;stroke:#808080;stroke-width:1.63311505;stroke-linecap:butt;stroke-linejoin:miter;stroke-miterlimit:4;stroke-opacity:1;stroke-dasharray:none;stroke-dashoffset:0;marker:none;visibility:visible;display:inline;overflow:visible"
         inkscape:connector-curvature="0" />
      <path
         transform="matrix(0.44287977,0,0,0.44288003,366.90263,728.08889)"
         d="m 36.239223,23.781593 a 12.727922,12.727922 0 1 1 -25.455844,0 12.727922,12.727922 0 1 1 25.455844,0 z"
         sodipodi:ry="12.727922"
         sodipodi:rx="12.727922"
         sodipodi:cy="23.781593"
         sodipodi:cx="23.511301"
         id="path6887"
         style="opacity:0.64772728;color:#000000;fill:none;stroke:#ffffff;stroke-width:3.68748999;stroke-linecap:butt;stroke-linejoin:miter;stroke-miterlimit:4;stroke-opacity:1;stroke-dasharray:none;stroke-dashoffset:0;marker:none;visibility:visible;display:inline;overflow:visible"
         sodipodi:type="arc" />
      <path
         sodipodi:nodetypes="ccccccccccccccccccccccccccccccccc"
         style="opacity:0.34659089;color:#000000;fill:none;stroke:#ffffff;stroke-width:1.63311481;stroke-linecap:butt;stroke-linejoin:miter;stroke-miterlimit:4;stroke-opacity:1;stroke-dasharray:none;stroke-dashoffset:0;marker:none;visibility:visible;display:inline;overflow:visible"
         d="m 375.96266,723.49831 -0.64126,4.21983 c -1.22016,0.27788 -3.4646,1.12773 -4.49731,1.76855 l -3.41152,-2.54635 c -0.90776,0.70476 -0.97001,0.75255 -1.6959,1.64277 l 2.46667,3.65827 c -0.70788,1.08177 -1.55811,3.00952 -1.86339,4.38711 0,0 -4.32236,0.72863 -4.32236,0.72863 -0.0743,0.60685 -0.0386,1.90568 0.0114,2.40543 l 4.12872,0.74377 c 0.28903,1.41124 1.37061,3.68284 2.1367,4.84637 l -2.61089,3.4495 c 0.69219,0.85933 0.83072,0.93796 1.69216,1.62762 l 3.49121,-2.55776 c 1.19601,0.76296 3.56998,1.69106 5.01716,1.95448 l 0.57298,4.16672 c 0.45596,0.0415 1.71559,0.15793 2.3523,0.076 l 0.64125,-4.33751 c 1.37405,-0.34195 3.74824,-1.31653 4.8692,-2.11387 l 3.48748,2.51978 c 0.8542,-0.72673 0.86185,-0.83623 1.53651,-1.73387 l -2.58432,-3.67342 c 0.64874,-1.12042 1.48758,-3.31163 1.71541,-4.63386 l 4.23125,-0.70207 c 0.0354,-0.42185 0.0372,-1.59825 -0.0683,-2.31805 l -4.31094,-0.74377 c -0.32182,-1.18834 -1.42624,-3.32971 -2.09498,-4.32652 l 2.73997,-3.4495 c -0.74916,-0.91619 -1.02772,-1.04191 -1.96921,-1.76044 l -3.60888,2.58432 c -1.00202,-0.59261 -3.00012,-1.49599 -4.17087,-1.75339 l -0.63752,-4.12873 c -0.58403,-0.0687 -2.26902,-0.0382 -2.60278,0 z"
         id="path6889"
         inkscape:connector-curvature="0" />
    </g>
  </g>
  <g
     inkscape:groupmode="layer"
     id="layer11"
     inkscape:label="rml file - 1, 2, 3, 4, 5, 6"
     style="display:inline"
     transform="translate(-37.632289,-441.45644)">
    <path
       sodipodi:type="arc"
       style="color:#000000;fill:#204a87;fill-opacity:1;fill-rule:evenodd;stroke:none;stroke-width:1;marker:none;visibility:visible;display:inline;overflow:visible;enable-background:accumulate"
       id="path3066"
       sodipodi:cx="257.66547"
       sodipodi:cy="402.13028"
       sodipodi:rx="11.202847"
       sodipodi:ry="11.669632"
       d="m 268.86831,402.13028 a 11.202847,11.669632 0 1 1 -22.40569,0 11.202847,11.669632 0 1 1 22.40569,0 z"
       transform="matrix(0.67590938,0,0,0.67590938,-57.386482,215.07975)" />
    <text
       xml:space="preserve"
       style="font-size:15px;font-style:normal;font-variant:normal;font-weight:normal;font-stretch:normal;text-indent:0;text-align:start;text-decoration:none;line-height:125%;letter-spacing:0px;word-spacing:0px;text-transform:none;direction:ltr;block-progression:tb;writing-mode:lr-tb;text-anchor:start;color:#000000;fill:#204a87;fill-opacity:1;fill-rule:nonzero;stroke:none;stroke-width:1px;marker:none;visibility:visible;display:inline;overflow:visible;enable-background:accumulate;font-family:URW Gothic L;-inkscape-font-specification:URW Gothic L Book"
       x="132.55861"
       y="488.34924"
       id="text3088"
       sodipodi:linespacing="125%"><tspan
         sodipodi:role="line"
         id="tspan3090"
         x="132.55861"
         y="488.34924">.rml</tspan></text>
  </g>
  <g
     inkscape:groupmode="layer"
     id="layer9"
     inkscape:label="responding - 2"
     style="display:inline"
     transform="translate(-37.632289,-441.45644)">
    <path
       style="fill:none;stroke:#a40000;stroke-width:1px;stroke-linecap:butt;stroke-linejoin:miter;stroke-opacity:1;marker-end:url(#Arrow1Lend);display:inline"
       d="m 564.69711,461.71588 c 19.47414,82.53593 -0.46277,152.36892 -36.22209,227.35144 L 667.96861,491.77251"
       id="path5434"
       inkscape:connector-curvature="0"
       sodipodi:nodetypes="ccc" />
    <path
       style="fill:none;stroke:#ce5c00;stroke-width:1px;stroke-linecap:butt;stroke-linejoin:miter;stroke-opacity:1;marker-start:none;marker-end:url(#Arrow1Lend);display:inline"
       d="m 396.0143,473.00693 -70.01779,65.34993 c 6.74628,18.67142 10.21379,31.74141 -7.46856,50.41282"
       id="path3102"
       inkscape:connector-curvature="0"
       sodipodi:nodetypes="ccc" />
    <text
       xml:space="preserve"
       style="font-size:15px;font-style:normal;font-variant:normal;font-weight:normal;font-stretch:normal;text-indent:0;text-align:start;text-decoration:none;line-height:125%;letter-spacing:0px;word-spacing:0px;text-transform:none;direction:ltr;block-progression:tb;writing-mode:lr-tb;text-anchor:start;color:#000000;fill:#000000;fill-opacity:1;fill-rule:nonzero;stroke:none;stroke-width:1px;marker:none;visibility:visible;display:inline;overflow:visible;enable-background:accumulate;font-family:URW Gothic L;-inkscape-font-specification:URW Gothic L Book"
       x="337.38608"
       y="562.95996"
       id="text5867"
       sodipodi:linespacing="125%"><tspan
         sodipodi:role="line"
         id="tspan5869"
         x="337.38608"
         y="562.95996"
         style="fill:#ce5c00">mv</tspan></text>
  </g>
  <g
     inkscape:groupmode="layer"
     id="layer5"
     inkscape:label="task rmlpdf_in - 2, 3, 4, 5"
     style="display:inline"
     transform="translate(-37.632289,-441.45644)">
    <path
       sodipodi:type="arc"
       style="color:#000000;fill:#f57900;fill-opacity:1;fill-rule:evenodd;stroke:none;stroke-width:1;marker:none;visibility:visible;display:inline;overflow:visible;enable-background:accumulate"
       id="path3078"
       sodipodi:cx="257.66547"
       sodipodi:cy="402.13028"
       sodipodi:rx="11.202847"
       sodipodi:ry="11.669632"
       d="m 268.86831,402.13028 a 11.202847,11.669632 0 1 1 -22.40569,0 11.202847,11.669632 0 1 1 22.40569,0 z"
       transform="matrix(0.67590938,0,0,0.67590938,137.41858,323.22136)" />
  </g>
  <g
     inkscape:groupmode="layer"
     id="layer3"
     inkscape:label="inotify rml_pdf on - 3"
     style="display:inline"
     transform="translate(-37.632289,-441.45644)">
    <path
       style="fill:none;stroke:#ce5c00;stroke-width:1px;stroke-linecap:butt;stroke-linejoin:miter;stroke-opacity:1;marker-end:url(#Arrow1Lend);display:inline"
       d="m 319.46152,595.30467 77.48635,-11.20284"
       id="path3104"
       inkscape:connector-curvature="0" />
    <text
       xml:space="preserve"
       style="font-size:15px;font-style:normal;font-variant:normal;font-weight:normal;font-stretch:normal;text-indent:0;text-align:start;text-decoration:none;line-height:125%;letter-spacing:0px;word-spacing:0px;text-transform:none;direction:ltr;block-progression:tb;writing-mode:lr-tb;text-anchor:start;color:#000000;fill:#ce5c00;fill-opacity:1;fill-rule:nonzero;stroke:none;stroke-width:1px;marker:none;visibility:visible;display:inline;overflow:visible;enable-background:accumulate;font-family:URW Gothic L;-inkscape-font-specification:URW Gothic L Book"
       x="224.28569"
       y="642.37531"
       id="text4296"
       sodipodi:linespacing="125%"
       transform="matrix(0.98284863,-0.18441411,0.18441411,0.98284863,0,0)"><tspan
         sodipodi:role="line"
         id="tspan4298"
         x="224.28569"
         y="642.37531">inotify</tspan></text>
  </g>
  <g
     inkscape:groupmode="layer"
     id="layer10"
     inkscape:label="rml_pdf_working - 3, 4"
     style="display:inline"
     transform="translate(-37.632289,-441.45644)">
    <g
       style="display:inline"
       transform="matrix(0.61232666,0,0,0.61232666,285.76364,145.78286)"
       id="g6910">
      <path
         inkscape:connector-curvature="0"
         style="color:#000000;fill:url(#linearGradient6930);fill-opacity:1;fill-rule:nonzero;stroke:#808080;stroke-width:1.63311529;stroke-linecap:butt;stroke-linejoin:miter;stroke-miterlimit:4;stroke-opacity:1;stroke-dasharray:none;stroke-dashoffset:0;marker:none;visibility:visible;display:inline;overflow:visible"
         d="m 334.14554,713.33873 c -0.46544,0.0318 -0.91783,0.10393 -1.375,0.15625 l -0.0312,0 -1.09375,5.96875 c -1.78273,0.40599 -3.45991,1.09499 -4.96875,2.03125 l -4.90625,-3.53125 c -1.32629,1.02969 -2.5332,2.2306 -3.59375,3.53125 l 3.40625,4.96875 c -1.03423,1.58052 -1.81197,3.38522 -2.25,5.28125 -8e-5,0.009 -6e-5,0.0297 0,0.0312 l -5.9375,0.9375 c -0.10855,0.88663 -0.15625,1.80294 -0.15625,2.71875 0,0.7493 0.0207,1.48859 0.0937,2.21875 l 5.9375,1.0625 c 0.42228,2.06189 1.22446,3.98751 2.34375,5.6875 l -3.53125,4.84375 c 1.01133,1.25552 2.17889,2.39862 3.4375,3.40625 l 5,-3.4375 c 1.74743,1.11472 3.69808,1.89637 5.8125,2.28125 l 0.9375,5.90625 c 0.66618,0.0606 1.34935,0.0625 2.03125,0.0625 0.96268,0 1.88224,-0.0365 2.8125,-0.15625 l 1.125,-6.03125 c 2.00756,-0.4996 3.89347,-1.36629 5.53125,-2.53125 l 4.8125,3.5 c 1.24803,-1.0618 2.38928,-2.28226 3.375,-3.59375 l -3.5,-5.0625 c 0.94785,-1.63699 1.60463,-3.44314 1.9375,-5.375 l 5.90625,-0.9375 c 0.0518,-0.61635 0.0625,-1.21409 0.0625,-1.84375 0,-1.09421 -0.12718,-2.16708 -0.28125,-3.21875 l -6,-1.09375 c -0.47019,-1.73622 -1.24168,-3.3561 -2.21875,-4.8125 l 3.53125,-4.84375 c -1.09457,-1.33861 -2.34318,-2.57518 -3.71875,-3.625 l -5.09375,3.5 c -1.464,-0.86584 -3.03946,-1.53018 -4.75,-1.90625 l -0.9375,-5.9375 c -0.8533,-0.10038 -1.71362,-0.15625 -2.59375,-0.15625 -0.23787,0 -0.48268,-0.007 -0.71875,0 -0.11508,0.004 -0.22897,-0.007 -0.34375,0 -0.0311,0.002 -0.0627,-0.002 -0.0937,0 z m 0.8125,15.1875 c 0.11417,-0.006 0.22815,0 0.34375,0 3.69913,0 6.71875,3.01962 6.71875,6.71875 0,3.69913 -3.01962,6.6875 -6.71875,6.6875 -3.69913,0 -6.6875,-2.98837 -6.6875,-6.6875 0,-3.58353 2.8046,-6.53916 6.34375,-6.71875 z"
         id="path6912" />
      <path
         sodipodi:type="arc"
         style="opacity:0.64772728;color:#000000;fill:none;stroke:#ffffff;stroke-width:2.69260812;stroke-linecap:butt;stroke-linejoin:miter;stroke-miterlimit:4;stroke-opacity:1;stroke-dasharray:none;stroke-dashoffset:0;marker:none;visibility:visible;display:inline;overflow:visible"
         id="path6914"
         sodipodi:cx="23.511301"
         sodipodi:cy="23.781593"
         sodipodi:rx="12.727922"
         sodipodi:ry="12.727922"
         d="m 36.239223,23.781593 a 12.727922,12.727922 0 1 1 -25.455844,0 12.727922,12.727922 0 1 1 25.455844,0 z"
         transform="matrix(0.606518,0,0,0.606518,321.04575,720.80682)" />
      <path
         inkscape:connector-curvature="0"
         id="path6916"
         d="m 333.45333,714.52009 -0.87819,5.77901 c -1.671,0.38055 -4.74473,1.54441 -6.15901,2.422 l -4.67203,-3.48719 c -1.24317,0.96516 -1.32842,1.03061 -2.32251,2.24975 l 3.37806,5.00995 c -0.96942,1.48147 -2.13381,4.1215 -2.55188,6.00809 0,0 -5.91941,0.99784 -5.91941,0.99784 -0.10175,0.83107 -0.0528,2.6098 0.0156,3.2942 l 5.65424,1.01859 c 0.39581,1.93267 1.87703,5.04359 2.92617,6.63703 l -3.57557,4.72405 c 0.94794,1.17683 1.13766,1.28452 2.31739,2.229 l 4.78117,-3.50282 c 1.63792,1.04486 4.88903,2.31589 6.87093,2.67664 l 0.78469,5.70626 c 0.62443,0.0568 2.34948,0.21628 3.22144,0.10402 l 0.87819,-5.94016 c 1.88174,-0.46829 5.13316,-1.80296 6.6683,-2.89491 l 4.77605,3.45081 c 1.16982,-0.99525 1.1803,-1.14521 2.10424,-2.37451 l -3.5392,-5.03071 c 0.88845,-1.53439 2.03723,-4.53522 2.34924,-6.346 l 5.79464,-0.96147 c 0.0485,-0.57772 0.0509,-2.18879 -0.0935,-3.17454 l -5.90378,-1.01859 c -0.44072,-1.62741 -1.95321,-4.55998 -2.86904,-5.9251 l 3.75235,-4.72405 c -1.02597,-1.25471 -1.40745,-1.42687 -2.69681,-2.41089 l -4.94231,3.53919 c -1.37225,-0.81157 -4.10862,-2.04874 -5.71195,-2.40124 l -0.87307,-5.65425 c -0.79983,-0.0941 -3.1074,-0.0523 -3.56448,0 z"
         style="opacity:0.34659089;color:#000000;fill:none;stroke:#ffffff;stroke-width:1.63311481;stroke-linecap:butt;stroke-linejoin:miter;stroke-miterlimit:4;stroke-opacity:1;stroke-dasharray:none;stroke-dashoffset:0;marker:none;visibility:visible;display:inline;overflow:visible"
         sodipodi:nodetypes="ccccccccccccccccccccccccccccccccc" />
      <path
         id="path6918"
         d="m 356.25617,745.99442 c -0.46544,0.0318 -0.91783,0.10393 -1.375,0.15625 l -0.0312,0 -1.09375,5.96875 c -1.78273,0.40599 -3.45991,1.09499 -4.96875,2.03125 l -4.90625,-3.53125 c -1.32629,1.02969 -2.5332,2.2306 -3.59375,3.53125 l 3.40625,4.96875 c -1.03423,1.58052 -1.81197,3.38522 -2.25,5.28125 -8e-5,0.009 -6e-5,0.0297 0,0.0312 l -5.9375,0.9375 c -0.10855,0.88663 -0.15625,1.80294 -0.15625,2.71875 0,0.7493 0.0207,1.48859 0.0937,2.21875 l 5.9375,1.0625 c 0.42228,2.06189 1.22446,3.98751 2.34375,5.6875 l -3.53125,4.84375 c 1.01133,1.25552 2.17889,2.39862 3.4375,3.40625 l 5,-3.4375 c 1.74743,1.11472 3.69808,1.89637 5.8125,2.28125 l 0.9375,5.90625 c 0.66618,0.0606 1.34935,0.0625 2.03125,0.0625 0.96268,0 1.88224,-0.0365 2.8125,-0.15625 l 1.125,-6.03125 c 2.00756,-0.4996 3.89347,-1.36629 5.53125,-2.53125 l 4.8125,3.5 c 1.24803,-1.0618 2.38928,-2.28226 3.375,-3.59375 l -3.5,-5.0625 c 0.94785,-1.63699 1.60463,-3.44314 1.9375,-5.375 l 5.90625,-0.9375 c 0.0518,-0.61635 0.0625,-1.21409 0.0625,-1.84375 0,-1.09421 -0.12718,-2.16708 -0.28125,-3.21875 l -6,-1.09375 c -0.47019,-1.73622 -1.24168,-3.3561 -2.21875,-4.8125 l 3.53125,-4.84375 c -1.09457,-1.33861 -2.34318,-2.57518 -3.71875,-3.625 l -5.09375,3.5 c -1.464,-0.86584 -3.03946,-1.53018 -4.75,-1.90625 l -0.9375,-5.9375 c -0.8533,-0.10038 -1.71362,-0.15625 -2.59375,-0.15625 -0.23787,0 -0.48268,-0.007 -0.71875,0 -0.11508,0.004 -0.22897,-0.007 -0.34375,0 -0.0311,0.002 -0.0627,-0.002 -0.0937,0 z m 0.8125,15.1875 c 0.11417,-0.006 0.22815,0 0.34375,0 3.69913,0 6.71875,3.01962 6.71875,6.71875 0,3.69913 -3.01962,6.6875 -6.71875,6.6875 -3.69913,0 -6.6875,-2.98837 -6.6875,-6.6875 0,-3.58353 2.8046,-6.53916 6.34375,-6.71875 z"
         style="color:#000000;fill:url(#linearGradient6932);fill-opacity:1;fill-rule:nonzero;stroke:#808080;stroke-width:1.63311529;stroke-linecap:butt;stroke-linejoin:miter;stroke-miterlimit:4;stroke-opacity:1;stroke-dasharray:none;stroke-dashoffset:0;marker:none;visibility:visible;display:inline;overflow:visible"
         inkscape:connector-curvature="0" />
      <path
         transform="matrix(0.606518,0,0,0.606518,343.15638,753.46251)"
         d="m 36.239223,23.781593 a 12.727922,12.727922 0 1 1 -25.455844,0 12.727922,12.727922 0 1 1 25.455844,0 z"
         sodipodi:ry="12.727922"
         sodipodi:rx="12.727922"
         sodipodi:cy="23.781593"
         sodipodi:cx="23.511301"
         id="path6920"
         style="opacity:0.64772728;color:#000000;fill:none;stroke:#ffffff;stroke-width:2.69260812;stroke-linecap:butt;stroke-linejoin:miter;stroke-miterlimit:4;stroke-opacity:1;stroke-dasharray:none;stroke-dashoffset:0;marker:none;visibility:visible;display:inline;overflow:visible"
         sodipodi:type="arc" />
      <path
         sodipodi:nodetypes="ccccccccccccccccccccccccccccccccc"
         style="opacity:0.34659089;color:#000000;fill:none;stroke:#ffffff;stroke-width:1.63311481;stroke-linecap:butt;stroke-linejoin:miter;stroke-miterlimit:4;stroke-opacity:1;stroke-dasharray:none;stroke-dashoffset:0;marker:none;visibility:visible;display:inline;overflow:visible"
         d="m 355.56396,747.17578 -0.87819,5.77901 c -1.671,0.38055 -4.74473,1.54441 -6.15901,2.422 l -4.67203,-3.48719 c -1.24317,0.96516 -1.32842,1.03061 -2.32251,2.24975 l 3.37806,5.00995 c -0.96942,1.48147 -2.13381,4.1215 -2.55188,6.00809 0,0 -5.91941,0.99784 -5.91941,0.99784 -0.10175,0.83107 -0.0528,2.6098 0.0156,3.2942 l 5.65424,1.01859 c 0.39581,1.93267 1.87703,5.04359 2.92617,6.63703 l -3.57557,4.72405 c 0.94794,1.17683 1.13766,1.28452 2.31739,2.229 l 4.78117,-3.50282 c 1.63792,1.04486 4.88903,2.31589 6.87093,2.67664 l 0.78469,5.70626 c 0.62443,0.0568 2.34948,0.21628 3.22144,0.10402 l 0.87819,-5.94016 c 1.88174,-0.46829 5.13316,-1.80296 6.6683,-2.89491 l 4.77605,3.45081 c 1.16982,-0.99525 1.1803,-1.14521 2.10424,-2.37451 l -3.5392,-5.03071 c 0.88845,-1.53439 2.03723,-4.53522 2.34924,-6.346 l 5.79464,-0.96147 c 0.0485,-0.57772 0.0509,-2.18879 -0.0935,-3.17454 l -5.90378,-1.01859 c -0.44072,-1.62741 -1.95321,-4.55998 -2.86904,-5.9251 l 3.75235,-4.72405 c -1.02597,-1.25471 -1.40745,-1.42687 -2.69681,-2.41089 l -4.94231,3.53919 c -1.37225,-0.81157 -4.10862,-2.04874 -5.71195,-2.40124 l -0.87307,-5.65425 c -0.79983,-0.0941 -3.1074,-0.0523 -3.56448,0 z"
         id="path6922"
         inkscape:connector-curvature="0" />
      <path
         inkscape:connector-curvature="0"
         style="color:#000000;fill:url(#linearGradient6934);fill-opacity:1;fill-rule:nonzero;stroke:#808080;stroke-width:1.63311505;stroke-linecap:butt;stroke-linejoin:miter;stroke-miterlimit:4;stroke-opacity:1;stroke-dasharray:none;stroke-dashoffset:0;marker:none;visibility:visible;display:inline;overflow:visible"
         d="m 376.46811,722.63568 c -0.33986,0.0232 -0.6702,0.0759 -1.00403,0.11409 l -0.0228,0 -0.79865,4.35839 c -1.30176,0.29645 -2.52643,0.79956 -3.62819,1.48322 l -3.58255,-2.57853 c -0.96845,0.75189 -1.84974,1.62879 -2.62415,2.57853 l 2.48724,3.62818 c -0.75519,1.1541 -1.3231,2.47189 -1.64295,3.85638 -6e-5,0.007 -4e-5,0.0217 0,0.0228 l -4.33556,0.68456 c -0.0793,0.64742 -0.1141,1.31651 -0.1141,1.98524 0,0.54714 0.0151,1.08697 0.0684,1.62013 l 4.33557,0.77584 c 0.30835,1.50559 0.8941,2.91168 1.7114,4.15302 l -2.57852,3.53691 c 0.73848,0.91678 1.59103,1.75147 2.51007,2.48724 l 3.651,-2.51006 c 1.27598,0.81397 2.70034,1.38473 4.24429,1.66577 l 0.68456,4.31275 c 0.48645,0.0442 0.9853,0.0456 1.48322,0.0456 0.70295,0 1.37442,-0.0267 2.05369,-0.1141 l 0.82148,-4.40402 c 1.46592,-0.36481 2.84301,-0.99767 4.03892,-1.84832 l 3.51409,2.5557 c 0.91131,-0.77533 1.74465,-1.66651 2.46443,-2.62416 l -2.5557,-3.69664 c 0.69212,-1.19533 1.1717,-2.51419 1.41476,-3.92483 l 4.31275,-0.68457 c 0.0378,-0.45006 0.0456,-0.88653 0.0456,-1.3463 0,-0.799 -0.0929,-1.58241 -0.20536,-2.35034 l -4.38121,-0.79866 c -0.34333,-1.26778 -0.90667,-2.45062 -1.62013,-3.51409 l 2.57852,-3.53691 c -0.79926,-0.97745 -1.71099,-1.8804 -2.71543,-2.64698 l -3.71946,2.55571 c -1.06902,-0.63224 -2.21942,-1.11734 -3.46845,-1.39195 l -0.68457,-4.33557 c -0.62308,-0.0733 -1.25128,-0.11409 -1.89396,-0.11409 -0.17369,0 -0.35245,-0.005 -0.52483,0 -0.084,0.003 -0.16719,-0.005 -0.251,0 -0.0227,10e-4 -0.0458,-10e-4 -0.0684,0 z m 0.59329,11.08992 c 0.0834,-0.004 0.16659,0 0.251,0 2.70111,0 4.90604,2.20493 4.90604,4.90604 0,2.70111 -2.20493,4.88322 -4.90604,4.88322 -2.7011,0 -4.88321,-2.18211 -4.88321,-4.88322 0,-2.6167 2.04792,-4.7749 4.63221,-4.90604 z"
         id="path6924" />
      <path
         sodipodi:type="arc"
         style="opacity:0.64772728;color:#000000;fill:none;stroke:#ffffff;stroke-width:3.68748999;stroke-linecap:butt;stroke-linejoin:miter;stroke-miterlimit:4;stroke-opacity:1;stroke-dasharray:none;stroke-dashoffset:0;marker:none;visibility:visible;display:inline;overflow:visible"
         id="path6926"
         sodipodi:cx="23.511301"
         sodipodi:cy="23.781593"
         sodipodi:rx="12.727922"
         sodipodi:ry="12.727922"
         d="m 36.239223,23.781593 a 12.727922,12.727922 0 1 1 -25.455844,0 12.727922,12.727922 0 1 1 25.455844,0 z"
         transform="matrix(0.44287977,0,0,0.44288003,366.90263,728.08889)" />
      <path
         inkscape:connector-curvature="0"
         id="path6928"
         d="m 375.96266,723.49831 -0.64126,4.21983 c -1.22016,0.27788 -3.4646,1.12773 -4.49731,1.76855 l -3.41152,-2.54635 c -0.90776,0.70476 -0.97001,0.75255 -1.6959,1.64277 l 2.46667,3.65827 c -0.70788,1.08177 -1.55811,3.00952 -1.86339,4.38711 0,0 -4.32236,0.72863 -4.32236,0.72863 -0.0743,0.60685 -0.0386,1.90568 0.0114,2.40543 l 4.12872,0.74377 c 0.28903,1.41124 1.37061,3.68284 2.1367,4.84637 l -2.61089,3.4495 c 0.69219,0.85933 0.83072,0.93796 1.69216,1.62762 l 3.49121,-2.55776 c 1.19601,0.76296 3.56998,1.69106 5.01716,1.95448 l 0.57298,4.16672 c 0.45596,0.0415 1.71559,0.15793 2.3523,0.076 l 0.64125,-4.33751 c 1.37405,-0.34195 3.74824,-1.31653 4.8692,-2.11387 l 3.48748,2.51978 c 0.8542,-0.72673 0.86185,-0.83623 1.53651,-1.73387 l -2.58432,-3.67342 c 0.64874,-1.12042 1.48758,-3.31163 1.71541,-4.63386 l 4.23125,-0.70207 c 0.0354,-0.42185 0.0372,-1.59825 -0.0683,-2.31805 l -4.31094,-0.74377 c -0.32182,-1.18834 -1.42624,-3.32971 -2.09498,-4.32652 l 2.73997,-3.4495 c -0.74916,-0.91619 -1.02772,-1.04191 -1.96921,-1.76044 l -3.60888,2.58432 c -1.00202,-0.59261 -3.00012,-1.49599 -4.17087,-1.75339 l -0.63752,-4.12873 c -0.58403,-0.0687 -2.26902,-0.0382 -2.60278,0 z"
         style="opacity:0.34659089;color:#000000;fill:none;stroke:#ffffff;stroke-width:1.63311481;stroke-linecap:butt;stroke-linejoin:miter;stroke-miterlimit:4;stroke-opacity:1;stroke-dasharray:none;stroke-dashoffset:0;marker:none;visibility:visible;display:inline;overflow:visible"
         sodipodi:nodetypes="ccccccccccccccccccccccccccccccccc" />
    </g>
    <text
       xml:space="preserve"
       style="font-size:15px;font-style:normal;font-variant:normal;font-weight:normal;font-stretch:normal;text-indent:0;text-align:start;text-decoration:none;line-height:125%;letter-spacing:0px;word-spacing:0px;text-transform:none;direction:ltr;block-progression:tb;writing-mode:lr-tb;text-anchor:start;color:#000000;fill:#000000;fill-opacity:1;fill-rule:nonzero;stroke:none;stroke-width:1px;marker:none;visibility:visible;display:inline;overflow:visible;enable-background:accumulate;font-family:URW Gothic L;-inkscape-font-specification:URW Gothic L Book"
       x="497.10541"
       y="618.33386"
       id="text5853"
       sodipodi:linespacing="125%"
       transform="matrix(0.9999909,-0.00426648,0.00426648,0.9999909,0,0)"><tspan
         sodipodi:role="line"
         id="tspan5855"
         x="497.10541"
         y="618.33386"
         style="fill:#204a87">z3c.rml</tspan></text>
  </g>
  <g
     inkscape:groupmode="layer"
     id="layer12"
     inkscape:label="user waiting - 4"
     style="display:inline"
     transform="translate(-37.632289,-441.45644)">
    <path
       sodipodi:nodetypes="ccccccc"
       inkscape:connector-curvature="0"
       id="path3082"
       d="m 669.88103,500.48696 -141.68832,207.08293 -166.75625,0 -77.38362,-61.03497 c 0.64875,17.95819 61.06724,71.11454 77.38362,70.84416 l 167.84616,-1.08991 155.85715,-201.63338"
       style="fill:none;stroke:#4e9a06;stroke-width:1;stroke-linecap:butt;stroke-linejoin:miter;stroke-miterlimit:4;stroke-opacity:1;stroke-dasharray:1, 2;stroke-dashoffset:0;marker-end:url(#Arrow1Lend);display:inline" />
  </g>
  <g
     inkscape:groupmode="layer"
     id="layer7"
     inkscape:label="rml_pdf ends - 5"
     style="display:inline"
     transform="translate(-37.632289,-441.45644)">
    <path
       sodipodi:nodetypes="ccc"
       inkscape:connector-curvature="0"
       id="path5440"
       d="m 394.47293,594.00414 -72.32984,7.54872 c 6.74628,18.67142 -2.11714,22.49321 -23.6529,34.22847"
       style="fill:none;stroke:#ce5c00;stroke-width:1px;stroke-linecap:butt;stroke-linejoin:miter;stroke-opacity:1;marker-start:none;marker-end:url(#Arrow1Lend);display:inline" />
    <path
       style="fill:none;stroke:#204a87;stroke-width:1px;stroke-linecap:butt;stroke-linejoin:miter;stroke-opacity:1;marker-end:url(#Arrow1Lend);display:inline"
       d="m 398.4934,557.16228 c -16.57764,-40.4025 -78.13105,-90.2878 -231.33343,-71.93406 6.33436,6.61214 0.78251,20.96223 -4.08717,31.60739"
       id="path5246"
       inkscape:connector-curvature="0"
       sodipodi:nodetypes="ccc" />
  </g>
  <g
     inkscape:groupmode="layer"
     id="layer6"
     inkscape:label="pdf file - 5,6"
     style="display:inline"
     transform="translate(-37.632289,-441.45644)">
    <path
       transform="matrix(0.67590938,0,0,0.67590938,-59.389252,243.94859)"
       d="m 268.86831,402.13028 a 11.202847,11.669632 0 1 1 -22.40569,0 11.202847,11.669632 0 1 1 22.40569,0 z"
       sodipodi:ry="11.669632"
       sodipodi:rx="11.202847"
       sodipodi:cy="402.13028"
       sodipodi:cx="257.66547"
       id="path3074"
       style="color:#000000;fill:#5c3566;fill-opacity:1;fill-rule:evenodd;stroke:none;stroke-width:1;marker:none;visibility:visible;display:inline;overflow:visible;enable-background:accumulate"
       sodipodi:type="arc" />
    <text
       sodipodi:linespacing="125%"
       id="text3092"
       y="521.57367"
       x="127.96224"
       style="font-size:15px;font-style:normal;font-variant:normal;font-weight:normal;font-stretch:normal;text-indent:0;text-align:start;text-decoration:none;line-height:125%;letter-spacing:0px;word-spacing:0px;text-transform:none;direction:ltr;block-progression:tb;writing-mode:lr-tb;text-anchor:start;color:#000000;fill:#5c3566;fill-opacity:1;fill-rule:nonzero;stroke:none;stroke-width:1px;marker:none;visibility:visible;display:inline;overflow:visible;enable-background:accumulate;font-family:URW Gothic L;-inkscape-font-specification:URW Gothic L Book"
       xml:space="preserve"><tspan
         y="521.57367"
         x="127.96224"
         id="tspan3094"
         sodipodi:role="line"
         style="fill:#5c3566">.pdf</tspan></text>
    <path
       transform="matrix(0.67590938,0,0,0.67590938,114.07932,362.43132)"
       d="m 268.86831,402.13028 a 11.202847,11.669632 0 1 1 -22.40569,0 11.202847,11.669632 0 1 1 22.40569,0 z"
       sodipodi:ry="11.669632"
       sodipodi:rx="11.202847"
       sodipodi:cy="402.13028"
       sodipodi:cx="257.66547"
       id="path3086"
       style="color:#000000;fill:#ce5c00;fill-opacity:1;fill-rule:evenodd;stroke:none;stroke-width:1;marker:none;visibility:visible;display:inline;overflow:visible;enable-background:accumulate"
       sodipodi:type="arc" />
  </g>
  <g
     inkscape:groupmode="layer"
     id="layer4"
     inkscape:label="user get file - 6"
     style="display:inline"
     transform="translate(-37.632289,-441.45644)">
    <path
       style="fill:none;stroke:#4e9a06;stroke-width:1px;stroke-linecap:butt;stroke-linejoin:miter;stroke-opacity:1;marker-end:url(#Arrow1Lend);display:inline"
       d="m 669.88103,500.48696 -141.68832,207.08293 -166.75625,0 -77.38362,-61.03497 c -94.45296,20.69898 -134.56147,-44.00045 -168.93608,-117.7103 20.4136,60.63328 21.20898,185.99555 246.3197,188.55446 l 167.84616,-1.08991 155.85715,-201.63338"
       id="path5826"
       inkscape:connector-curvature="0"
       sodipodi:nodetypes="cccccccc" />
    <path
       transform="matrix(0.67590938,0,0,0.67590938,479.42926,282.91454)"
       d="m 268.86831,402.13028 a 11.202847,11.669632 0 1 1 -22.40569,0 11.202847,11.669632 0 1 1 22.40569,0 z"
       sodipodi:ry="11.669632"
       sodipodi:rx="11.202847"
       sodipodi:cy="402.13028"
       sodipodi:cx="257.66547"
       id="path3074-9"
       style="color:#000000;fill:#5c3566;fill-opacity:1;fill-rule:evenodd;stroke:none;stroke-width:1;marker:none;visibility:visible;display:inline;overflow:visible;enable-background:accumulate"
       sodipodi:type="arc" />
  </g>
</svg>
